<svg width="1306" height="892" viewBox="0 0 1306 892" fill="none" xmlns="http://www.w3.org/2000/svg">
<path opacity="0.8" d="M749.014 106.706V891M749.014 106.706L941.366 215.023M749.014 106.706L653.494 160.567M366.935 891V537.193M1037.66 161.044L844.244 268.171L850.055 891M1037.66 161.044V891M1037.66 161.044V54.0531L1131.7 1M1037.66 161.044L1131.7 214.247M1227.02 891V268.171L1131.7 214.247M1131.7 1V214.247M1131.7 1L1305 98.1061M557.975 214.427L366.935 322.149V537.193M557.975 214.427V106.706M557.975 214.427L653.494 160.567M557.975 106.706L268.918 268.171V482.481M557.975 106.706L653.494 160.567M268.918 482.481L366.935 537.193M268.918 482.481L173.056 429.614M173.056 429.614L176.843 891M173.056 429.614L1 526.743M268.918 342.589L137.425 416.246V449.728" stroke="#7A7A7A"/>
</svg>
