<svg width="143" height="33" viewBox="0 0 143 33" fill="none" xmlns="http://www.w3.org/2000/svg">
<path d="M137.332 26.2783C137.719 25.6778 137.942 25.0192 138 24.3024C138.058 23.5856 138.087 22.8785 138.087 22.1811C137.526 22.8979 136.838 23.4016 136.024 23.6922C135.211 23.9827 134.329 24.128 133.38 24.128C132.276 24.128 131.317 23.9634 130.503 23.634C129.709 23.3047 129.079 22.801 128.614 22.123C128.15 21.5031 127.83 20.7767 127.656 19.9437C127.481 19.0913 127.394 18.1711 127.394 17.1831V8.58191H131.491V16.6891C131.491 17.2122 131.53 17.7255 131.607 18.2292C131.704 18.7135 131.898 19.1203 132.189 19.4497C132.654 20.1471 133.496 20.4958 134.717 20.4958C135.298 20.4958 135.84 20.3795 136.344 20.1471C136.848 19.8952 137.245 19.5078 137.535 18.9847C137.787 18.5392 137.942 18.0742 138 17.5899C138.058 17.0863 138.087 16.5439 138.087 15.9627V8.58191H142.214V21.1641C142.214 21.8615 142.204 22.5783 142.185 23.3144C142.185 24.0312 142.127 24.7383 142.01 25.4357C141.913 26.133 141.729 26.8111 141.458 27.4697C141.187 28.1284 140.809 28.7386 140.325 29.3004C139.647 30.0753 138.756 30.6952 137.652 31.1601C136.567 31.625 135.259 31.8478 133.729 31.8285C132.605 31.8478 131.491 31.6928 130.387 31.3635C129.283 31.0536 128.266 30.5983 127.336 29.9978L128.644 26.5108C129.147 26.8789 129.816 27.2179 130.649 27.5278C131.501 27.8378 132.499 27.9928 133.642 27.9928C134.571 27.9928 135.327 27.8378 135.908 27.5278C136.509 27.2373 136.983 26.8208 137.332 26.2783Z" fill="#0B0B0B"/>
<path d="M118.433 20.4957C119.208 20.4957 119.818 20.3117 120.264 19.9436C120.729 19.5755 121.01 19.159 121.106 18.6941H125.407C125.271 19.6821 124.991 20.5151 124.564 21.1931C124.138 21.8711 123.605 22.4329 122.966 22.8785C122.346 23.324 121.639 23.6437 120.845 23.8374C120.051 24.0311 119.227 24.128 118.375 24.128C117.096 24.128 115.982 23.9536 115.033 23.6049C114.103 23.2369 113.329 22.7138 112.709 22.0358C112.089 21.3384 111.614 20.5054 111.285 19.5368C110.975 18.5488 110.82 17.4446 110.82 16.2241C110.82 15.0424 110.994 13.9576 111.343 12.9696C111.692 11.9817 112.186 11.139 112.825 10.4416C113.483 9.74417 114.287 9.21144 115.237 8.84337C116.186 8.45593 117.271 8.26221 118.491 8.26221C119.382 8.26221 120.215 8.36875 120.99 8.58185C121.784 8.79494 122.482 9.12427 123.082 9.56983C123.702 10.0154 124.206 10.5869 124.593 11.2843C125 11.9623 125.271 12.7759 125.407 13.7251H121.106C121.01 13.2602 120.719 12.8437 120.235 12.4756C119.77 12.1076 119.16 11.9235 118.404 11.9235C117.765 11.9235 117.213 12.0398 116.748 12.2722C116.283 12.5047 115.915 12.8243 115.643 13.2312C115.372 13.638 115.179 14.1029 115.062 14.6259C114.946 15.149 114.888 15.7011 114.888 16.2823C114.888 16.9022 114.956 17.4737 115.091 17.9967C115.227 18.5004 115.43 18.9459 115.702 19.3334C115.973 19.7014 116.331 19.992 116.777 20.2051C117.242 20.3988 117.794 20.4957 118.433 20.4957Z" fill="#0B0B0B"/>
<path d="M98.345 10.5288C99.5848 9.03716 101.115 8.28164 102.936 8.26227C103.924 8.2429 104.796 8.40756 105.551 8.75626C106.307 9.08559 106.917 9.54083 107.382 10.122C107.944 10.8 108.331 11.5943 108.544 12.5048C108.758 13.3959 108.864 14.3935 108.864 15.4978V23.8956H104.738V15.8174C104.738 15.275 104.68 14.7616 104.563 14.2773C104.467 13.7736 104.292 13.3475 104.04 12.9988C103.789 12.6307 103.45 12.3595 103.023 12.1851C102.617 12.0108 102.152 11.9236 101.629 11.9236C100.97 11.943 100.408 12.0883 99.9432 12.3595C99.4976 12.6307 99.1586 12.9794 98.9262 13.4056C98.6937 13.8124 98.529 14.2773 98.4322 14.8004C98.3547 15.304 98.316 15.8174 98.316 16.3404V23.8956H94.2188V8.58191H98.1416L98.345 10.5288Z" fill="#0B0B0B"/>
<path d="M85.0026 20.7863C85.5838 20.7863 86.0778 20.6991 86.4846 20.5248C86.9108 20.331 87.2595 20.0211 87.5307 19.5949H91.8313C91.6182 20.3892 91.2889 21.0769 90.8433 21.658C90.4172 22.2392 89.8941 22.7138 89.2742 23.0819C88.6737 23.4499 88.0053 23.7212 87.2692 23.8955C86.533 24.0505 85.7582 24.128 84.9445 24.128C82.4649 24.128 80.5858 23.4306 79.3072 22.0358C78.0481 20.641 77.4185 18.6844 77.4185 16.166C77.4185 15.0231 77.5831 13.9673 77.9124 12.9987C78.2611 12.0301 78.7454 11.1971 79.3654 10.4997C79.9853 9.78292 80.7505 9.23081 81.661 8.84337C82.5908 8.45593 83.6466 8.26221 84.8283 8.26221C86.2037 8.26221 87.3951 8.50436 88.4024 8.98866C89.4098 9.47297 90.2041 10.1413 90.7852 10.9937C91.3858 11.8267 91.7829 12.805 91.9766 13.9286C92.1897 15.0521 92.1897 16.2532 91.9766 17.5318H81.5157C81.5932 18.4423 81.9128 19.2171 82.4746 19.8564C83.0364 20.4763 83.8791 20.7863 85.0026 20.7863ZM88.17 14.7131C88.17 14.2288 88.0828 13.8026 87.9085 13.4346C87.7341 13.0471 87.5016 12.7372 87.2111 12.5047C86.9205 12.2529 86.5718 12.0688 86.165 11.9526C85.7775 11.8364 85.3707 11.7782 84.9445 11.7782C83.9178 11.7976 83.1139 12.0785 82.5327 12.6209C81.9709 13.144 81.6416 13.8414 81.5447 14.7131H88.17Z" fill="#0B0B0B"/>
<path d="M71.2398 22.3265C70.6586 22.9851 69.9612 23.4501 69.1476 23.7213C68.3339 23.9925 67.4525 24.1281 66.5033 24.1281C65.554 24.1281 64.6242 23.9828 63.7137 23.6922C62.8226 23.3823 62.0477 22.8883 61.389 22.2102C60.6529 21.4354 60.1395 20.5442 59.849 19.5369C59.5584 18.5295 59.4131 17.4931 59.4131 16.4277C59.4131 13.9093 60.1105 11.8946 61.5053 10.3836C62.1058 9.72491 62.8807 9.21155 63.8299 8.84348C64.7985 8.47541 65.8349 8.30106 66.9392 8.32044C67.6559 8.28169 68.4308 8.40761 69.2638 8.69819C70.0968 8.98877 70.8136 9.47308 71.4141 10.1511L71.85 8.58196H75.3951V22.9367C75.3951 23.5566 75.3563 24.1668 75.2789 24.7674C75.2207 25.3873 75.1142 25.9781 74.9592 26.5399C74.8042 27.1211 74.5718 27.6732 74.2618 28.1962C73.9131 28.8355 73.4869 29.3779 72.9833 29.8235C72.499 30.269 71.9565 30.6371 71.356 30.9277C70.7555 31.2377 70.1162 31.4604 69.4382 31.596C68.7601 31.7316 68.0724 31.7994 67.375 31.7994C66.4839 31.7994 65.6315 31.6929 64.8179 31.4798C64.0043 31.2861 63.2585 30.9568 62.5804 30.4918C61.9218 30.0463 61.3697 29.4748 60.9241 28.7774C60.4979 28.08 60.217 27.247 60.0814 26.2784H64.4402C64.5176 26.7433 64.8276 27.1598 65.37 27.5279C65.9124 27.896 66.5711 28.08 67.346 28.08C68.179 28.08 68.857 27.9153 69.38 27.586C69.9225 27.2567 70.3293 26.8208 70.6005 26.2784C70.8717 25.736 71.046 25.1161 71.1235 24.4187C71.201 23.7213 71.2398 23.0239 71.2398 22.3265ZM67.4331 20.4958C68.0724 20.4958 68.6342 20.3796 69.1185 20.1471C69.6222 19.9146 70.029 19.6047 70.339 19.2173C70.6489 18.8104 70.8814 18.3455 71.0364 17.8225C71.1913 17.28 71.2688 16.7086 71.2688 16.108C71.2688 14.907 70.9298 13.919 70.2518 13.1441C69.5931 12.3498 68.6439 11.943 67.4041 11.9236C66.7648 11.9236 66.1933 12.0399 65.6897 12.2723C65.2053 12.5048 64.7985 12.8148 64.4692 13.2022C64.1593 13.5897 63.9268 14.0449 63.7718 14.5679C63.6168 15.091 63.5393 15.6528 63.5393 16.2533C63.5393 16.8926 63.6168 17.4738 63.7718 17.9968C63.9462 18.5005 64.198 18.946 64.5273 19.3335C64.8567 19.7016 65.2635 19.9921 65.7478 20.2052C66.2321 20.399 66.7939 20.4958 67.4331 20.4958Z" fill="#0B0B0B"/>
<path d="M53.5649 22.0067C52.9837 22.7816 52.2766 23.3337 51.4436 23.663C50.6106 23.9924 49.642 24.1473 48.5378 24.128C47.1237 24.0892 45.942 23.6921 44.9927 22.9366C44.4891 22.5104 44.0919 22.0067 43.8013 21.4256C43.5301 20.825 43.3945 20.1179 43.3945 19.3043C43.4139 18.4713 43.5979 17.7352 43.9466 17.0959C44.3147 16.4372 44.8668 15.8948 45.603 15.4686C46.2229 15.1393 46.9203 14.9068 47.6951 14.7712C48.4894 14.6356 49.3515 14.5678 50.2813 14.5678H53.4196C53.4777 13.6186 53.2549 12.9115 52.7513 12.4466C52.267 11.9623 51.5793 11.7104 50.6881 11.6911C50.3976 11.6911 50.0973 11.7104 49.7873 11.7492C49.4774 11.7879 49.1868 11.8654 48.9156 11.9817C48.6637 12.0979 48.441 12.2626 48.2472 12.4756C48.0729 12.6694 47.9567 12.9115 47.8985 13.2021H43.6851C43.782 12.2722 44.0338 11.4974 44.4406 10.8774C44.8668 10.2382 45.3995 9.7248 46.0388 9.33736C46.6781 8.94992 47.3852 8.67871 48.1601 8.52373C48.9543 8.34938 49.768 8.26221 50.601 8.26221C51.0659 8.26221 51.5405 8.29127 52.0248 8.34938C52.5091 8.38813 52.9837 8.48499 53.4487 8.63996C53.9136 8.77557 54.3495 8.96929 54.7563 9.22113C55.1825 9.45359 55.5796 9.76355 55.9477 10.151C56.6063 10.9065 57.0131 11.7782 57.1681 12.7662C57.3425 13.7348 57.4199 14.6841 57.4006 15.6139V23.8955H53.6521L53.5649 22.0067ZM53.4196 17.125H50.4266C50.136 17.125 49.8067 17.154 49.4386 17.2121C49.0706 17.2702 48.7509 17.3768 48.4797 17.5318C48.2085 17.6867 47.976 17.8902 47.7823 18.142C47.608 18.3938 47.5208 18.7038 47.5208 19.0719C47.5208 19.3818 47.5789 19.653 47.6951 19.8855C47.8307 20.1179 47.9954 20.3117 48.1891 20.4666C48.4022 20.6216 48.6541 20.7475 48.9446 20.8444C49.2352 20.9219 49.5258 20.9606 49.8164 20.9606C50.3782 20.98 50.9012 20.8831 51.3855 20.67C51.8892 20.457 52.3251 20.1567 52.6931 19.7692C52.9256 19.4593 53.1 19.1106 53.2162 18.7232C53.3518 18.3163 53.4196 17.7836 53.4196 17.125Z" fill="#0B0B0B"/>
<path fill-rule="evenodd" clip-rule="evenodd" d="M32.2678 17.4214C32.1037 20.2901 31.1761 23.0693 29.5735 25.4677C27.7997 28.1225 25.2784 30.1916 22.3286 31.4135C19.3788 32.6353 16.1329 32.955 13.0013 32.3321C9.86982 31.7092 6.99333 30.1717 4.73563 27.914C2.47793 25.6563 0.940421 22.7798 0.317523 19.6483C-0.305375 16.5168 0.0143189 13.2709 1.23618 10.3211C2.45804 7.37125 4.52718 4.84999 7.18195 3.07612C9.58041 1.47353 12.3595 0.546002 15.2283 0.381836V8.48006C13.9584 8.62615 12.7366 9.07242 11.6664 9.78751C10.339 10.6744 9.3044 11.9351 8.69347 13.41C8.08254 14.8849 7.92269 16.5079 8.23414 18.0736C8.54559 19.6394 9.31435 21.0776 10.4432 22.2065C11.572 23.3353 13.0103 24.1041 14.576 24.4155C16.1418 24.727 17.7648 24.5671 19.2397 23.9562C20.7146 23.3453 21.9752 22.3107 22.8621 20.9833C23.5772 19.9131 24.0235 18.6913 24.1696 17.4214H32.2678Z" fill="#0B0B0B"/>
<path fill-rule="evenodd" clip-rule="evenodd" d="M24.2182 0.355469H17.6147V8.42717H24.2182V15.031H32.2899L32.2899 8.42717H32.2906V0.355469H30.8133H24.2182Z" fill="#0B0B0B"/>
</svg>
