<svg width="1440" height="982" viewBox="0 0 1440 982" fill="none" xmlns="http://www.w3.org/2000/svg">
<g clip-path="url(#clip0_2467_34132)">
<path d="M826.028 116.632V982M826.028 116.632L1038.44 236.147M826.028 116.632L720.546 176.061M404.1 982V591.62M1144.78 176.588L931.19 294.789L937.606 982M1144.78 176.588V982M1144.78 176.588V58.5373L1248.63 0M1144.78 176.588L1248.63 235.291M1353.88 982V294.789L1248.63 235.291M1248.63 0V235.291M1248.63 0L1440 107.144M615.064 235.49L404.1 354.347V591.62M615.064 235.49V116.632M615.064 235.49L720.546 176.061M615.064 116.632L295.861 294.789V531.253M615.064 116.632L720.546 176.061M295.861 531.253L404.1 591.62M295.861 531.253L190 472.92M190 472.92L194.183 982M190 472.92L0 580.089M295.861 376.9L150.653 458.17V495.114" stroke="#0B0B0B"/>
</g>
<defs>
<clipPath id="clip0_2467_34132">
<rect width="1440" height="982" fill="white"/>
</clipPath>
</defs>
</svg>
