<svg width="171" height="33" viewBox="0 0 171 33" fill="none" xmlns="http://www.w3.org/2000/svg">
<path d="M164.971 10.7367H168.993L163.689 25.3079C162.174 29.5044 159.696 31.3404 155.995 31.1364V27.6393C158.065 27.6684 159.114 26.7942 159.813 24.8416L153.839 10.7367H157.948L161.736 20.5285L164.971 10.7367Z" fill="#BABABA"/>
<path d="M147.066 10.3287C150.155 10.3287 152.574 12.4853 152.574 16.3612V25.3079H148.814V16.8275C148.814 14.8458 147.62 13.8258 145.929 13.8258C144.093 13.8258 142.724 14.9041 142.724 17.4395V25.3079H138.964V10.7367H142.724V12.3687C143.598 11.0573 145.113 10.3287 147.066 10.3287Z" fill="#BABABA"/>
<path d="M131.796 10.7367H135.556V25.3079H131.796V23.5885C130.747 24.8999 129.173 25.7159 127.046 25.7159C123.17 25.7159 119.964 22.3645 119.964 18.0223C119.964 13.6801 123.17 10.3287 127.046 10.3287C129.173 10.3287 130.747 11.1447 131.796 12.4561V10.7367ZM127.745 22.1314C130.077 22.1314 131.796 20.4703 131.796 18.0223C131.796 15.5744 130.077 13.9132 127.745 13.9132C125.443 13.9132 123.724 15.5744 123.724 18.0223C123.724 20.4703 125.443 22.1314 127.745 22.1314Z" fill="#BABABA"/>
<path d="M110.96 10.3287C114.865 10.3287 118.071 13.6801 118.071 18.0223C118.071 22.3645 114.865 25.7159 110.96 25.7159C108.833 25.7159 107.288 24.9291 106.239 23.5885V31.1364H102.479V10.7367H106.239V12.4561C107.288 11.1156 108.833 10.3287 110.96 10.3287ZM110.261 22.1314C112.592 22.1314 114.311 20.4703 114.311 18.0223C114.311 15.5744 112.592 13.9132 110.261 13.9132C107.958 13.9132 106.239 15.5744 106.239 18.0223C106.239 20.4703 107.958 22.1314 110.261 22.1314Z" fill="#BABABA"/>
<path d="M93.7786 10.3287C97.1008 10.3287 99.2865 12.6893 99.2865 16.3321V25.3079H95.5271V16.5944C95.5271 14.8749 94.6529 13.8258 93.0792 13.8258C91.4181 13.8258 90.3689 14.9332 90.3689 17.1189V25.3079H86.6096V16.5944C86.6096 14.8749 85.7353 13.8258 84.1616 13.8258C82.5588 13.8258 81.4222 14.9332 81.4222 17.1189V25.3079H77.6628V10.7367H81.4222V12.2813C82.2382 11.0573 83.6079 10.3287 85.473 10.3287C87.2798 10.3287 88.6204 11.0864 89.4364 12.427C90.3398 11.1156 91.7969 10.3287 93.7786 10.3287Z" fill="#BABABA"/>
<path d="M67.2954 25.7159C63.0115 25.7159 59.6018 22.3645 59.6018 18.0223C59.6018 13.6801 63.0115 10.3287 67.2954 10.3287C71.5793 10.3287 75.0181 13.6801 75.0181 18.0223C75.0181 22.3645 71.5793 25.7159 67.2954 25.7159ZM67.2954 22.044C69.5394 22.044 71.2588 20.3829 71.2588 18.0223C71.2588 15.6618 69.5394 14.0007 67.2954 14.0007C65.0806 14.0007 63.3612 15.6618 63.3612 18.0223C63.3612 20.3829 65.0806 22.044 67.2954 22.044Z" fill="#BABABA"/>
<path d="M52.0129 25.7159C47.5833 25.7159 44.3193 22.3645 44.3193 18.0223C44.3193 13.6801 47.5833 10.3287 52.0129 10.3287C54.8689 10.3287 57.346 11.8441 58.5408 14.0881L55.306 15.9824C54.7232 14.7875 53.4701 14.0298 51.9838 14.0298C49.7398 14.0298 48.0787 15.6909 48.0787 18.0223C48.0787 20.3246 49.7398 21.9857 51.9838 21.9857C53.4992 21.9857 54.7523 21.2571 55.3352 20.0623L58.5991 21.9274C57.346 24.2005 54.8689 25.7159 52.0129 25.7159Z" fill="#BABABA"/>
<path fill-rule="evenodd" clip-rule="evenodd" d="M12.2365 2.12219C10.9791 2.12219 9.95983 3.1415 9.95983 4.39888V11.5099H2.71761C1.46023 11.5099 0.440918 12.5292 0.440918 13.7865V30.5726C0.440918 31.83 1.46023 32.8493 2.71761 32.8493H19.3043C20.5617 32.8493 21.581 31.83 21.581 30.5726V23.4617H28.8232C30.0806 23.4617 31.0999 22.4424 31.0999 21.185V4.39888C31.0999 3.1415 30.0806 2.12219 28.8232 2.12219H12.2365ZM21.581 23.4617V13.7865C21.581 12.5292 20.5616 11.5099 19.3043 11.5099H9.95983V21.185C9.95983 22.4424 10.9791 23.4617 12.2365 23.4617H21.581Z" fill="#BABABA"/>
</svg>
