<svg width="76" height="76" viewBox="0 0 76 76" fill="none" xmlns="http://www.w3.org/2000/svg">
<path fill-rule="evenodd" clip-rule="evenodd" d="M30.0032 5.84152C34.6712 2.72953 40.7525 2.72952 45.4205 5.84151L69.1338 21.6504C72.9999 24.2278 75.3221 28.5669 75.3221 33.2134V65.4322C75.3221 66.7461 74.8002 68.0061 73.8711 68.9352C72.9421 69.8643 71.682 70.3862 70.3681 70.3862H5.05559C3.74171 70.3862 2.48163 69.8643 1.55257 68.9352C0.623504 68.0061 0.101562 66.7461 0.101562 65.4322V33.2134C0.101562 28.5669 2.42376 24.2278 6.28987 21.6504L30.0032 5.84152ZM43.218 9.14522C39.8837 6.92237 35.5399 6.92238 32.2057 9.14523L8.49235 24.9541C5.73083 26.7951 4.07212 29.8944 4.07212 33.2134V65.4322C4.07212 65.693 4.17574 65.9432 4.36018 66.1276C4.54461 66.312 4.79476 66.4156 5.05559 66.4156H70.3681C70.6289 66.4156 70.8791 66.312 71.0635 66.1276C71.2479 65.9432 71.3516 65.693 71.3516 65.4322V33.2134C71.3516 29.8944 69.6928 26.7951 66.9313 24.9541L43.218 9.14522Z" fill="#0B0B0B"/>
<path fill-rule="evenodd" clip-rule="evenodd" d="M73.5986 27.0806C74.2143 27.9878 73.978 29.2224 73.0707 29.8381L48.3519 46.6133C46.0494 48.1758 43.3309 49.0112 40.5482 49.0112H34.8758C32.0965 49.0112 29.3811 48.1778 27.0802 46.6187L2.31713 29.8389C1.40945 29.2239 1.17223 27.9895 1.78729 27.0818C2.40234 26.1741 3.63677 25.9369 4.54445 26.5519L29.3075 43.3317C30.951 44.4454 32.8906 45.0406 34.8758 45.0406H40.5482C42.5358 45.0406 44.4777 44.4439 46.1223 43.3278L70.8411 26.5527C71.7483 25.937 72.9829 26.1733 73.5986 27.0806Z" fill="#0B0B0B"/>
</svg>
