<svg width="40" height="32" viewBox="0 0 40 32" fill="none" xmlns="http://www.w3.org/2000/svg">
<path d="M4.28571 0C1.9308 0 0 1.96591 0 4.36364V27.6364C0 30.0341 1.9308 32 4.28571 32H35.7143C38.0692 32 40 30.0341 40 27.6364V4.36364C40 1.96591 38.0692 0 35.7143 0H4.28571ZM4.28571 2.90909H35.7143C35.8147 2.90909 35.8929 2.94318 35.9821 2.96591L20 14.2273L4.01786 2.96591C4.10714 2.94318 4.18527 2.90909 4.28571 2.90909ZM2.85714 5.68182L20 17.7727L37.1429 5.68182V27.6364C37.1429 28.4545 36.5179 29.0909 35.7143 29.0909H4.28571C3.48214 29.0909 2.85714 28.4545 2.85714 27.6364V5.68182Z" fill="white"/>
</svg>
