<svg width="219" height="35" viewBox="0 0 219 35" fill="none" xmlns="http://www.w3.org/2000/svg">
<path d="M206.322 12.8538C207.562 11.3621 209.092 10.6066 210.913 10.5872C211.901 10.5679 212.773 10.7325 213.528 11.0812C214.284 11.4105 214.894 11.8658 215.359 12.4469C215.921 13.125 216.308 13.9192 216.521 14.8297C216.735 15.7208 216.841 16.7185 216.841 17.8227V26.2205H212.715V18.1423C212.715 17.5999 212.657 17.0866 212.541 16.6023C212.444 16.0986 212.269 15.6724 212.017 15.3237C211.766 14.9556 211.427 14.6844 211 14.5101C210.594 14.3357 210.129 14.2486 209.606 14.2486C208.947 14.2679 208.385 14.4132 207.92 14.6844C207.475 14.9556 207.136 15.3043 206.903 15.7305C206.671 16.1373 206.506 16.6023 206.409 17.1253C206.332 17.629 206.293 18.1424 206.293 18.6654V26.2205H202.196V10.9069H206.119L206.322 12.8538Z" fill="#0B0B0B"/>
<path d="M191.807 26.4529C189.327 26.4529 187.419 25.7555 186.082 24.3607C184.745 22.9466 184.077 20.99 184.077 18.491C184.077 17.2899 184.252 16.2051 184.6 15.2365C184.968 14.2485 185.472 13.4058 186.111 12.7084C186.77 12.011 187.574 11.488 188.523 11.1393C189.492 10.7712 190.586 10.5872 191.807 10.5872C193.008 10.5872 194.083 10.7712 195.032 11.1393C196.001 11.488 196.814 12.011 197.473 12.7084C198.151 13.4058 198.664 14.2485 199.013 15.2365C199.381 16.2051 199.565 17.2899 199.565 18.491C199.565 21.0094 198.887 22.9659 197.531 24.3607C196.194 25.7555 194.286 26.4529 191.807 26.4529ZM191.807 14.2485C190.547 14.2485 189.618 14.6553 189.017 15.4689C188.417 16.2826 188.116 17.2996 188.116 18.52C188.116 19.7599 188.417 20.7866 189.017 21.6002C189.618 22.4138 190.547 22.8207 191.807 22.8207C193.066 22.8207 193.986 22.4138 194.567 21.6002C195.148 20.7866 195.439 19.7599 195.439 18.52C195.439 17.2996 195.148 16.2826 194.567 15.4689C193.986 14.6553 193.066 14.2485 191.807 14.2485Z" fill="#0B0B0B"/>
<path d="M179.15 3.7876C179.906 3.7876 180.516 4.01038 180.981 4.45594C181.446 4.90149 181.678 5.49234 181.678 6.22848C181.678 7.00337 181.446 7.61359 180.981 8.05915C180.516 8.48534 179.906 8.69843 179.15 8.69843C178.414 8.69843 177.804 8.48534 177.319 8.05915C176.855 7.61359 176.622 7.00337 176.622 6.22848C176.622 5.49234 176.855 4.90149 177.319 4.45594C177.804 4.01038 178.414 3.7876 179.15 3.7876ZM181.213 26.2205H177.116V10.9069H181.213V26.2205Z" fill="#0B0B0B"/>
<path d="M171.02 14.4809V20.6703C171.02 21.9876 171.688 22.6463 173.025 22.6463H174.536V26.2204H172.618C170.584 26.2979 169.122 25.9105 168.23 25.0581C167.359 24.2057 166.923 22.9175 166.923 21.1934V14.4809H164.598V10.9068H166.923V6.75146H171.02V10.9068H174.681V14.4809H171.02Z" fill="#0B0B0B"/>
<path d="M158.692 24.3317C158.111 25.1066 157.404 25.6587 156.571 25.988C155.738 26.3173 154.769 26.4723 153.665 26.4529C152.251 26.4142 151.069 26.0171 150.12 25.2615C149.616 24.8354 149.219 24.3317 148.928 23.7505C148.657 23.15 148.521 22.4429 148.521 21.6293C148.541 20.7963 148.725 20.0601 149.074 19.4208C149.442 18.7622 149.994 18.2198 150.73 17.7936C151.35 17.4643 152.047 17.2318 152.822 17.0962C153.616 16.9606 154.478 16.8928 155.408 16.8928H158.547C158.605 15.9436 158.382 15.2365 157.878 14.7715C157.394 14.2872 156.706 14.0354 155.815 14.016C155.525 14.016 155.224 14.0354 154.914 14.0741C154.604 14.1129 154.314 14.1904 154.043 14.3066C153.791 14.4228 153.568 14.5875 153.374 14.8006C153.2 14.9943 153.084 15.2365 153.026 15.527H148.812C148.909 14.5972 149.161 13.8223 149.568 13.2024C149.994 12.5631 150.526 12.0498 151.166 11.6623C151.805 11.2749 152.512 11.0037 153.287 10.8487C154.081 10.6743 154.895 10.5872 155.728 10.5872C156.193 10.5872 156.667 10.6162 157.152 10.6743C157.636 10.7131 158.111 10.8099 158.576 10.9649C159.041 11.1005 159.476 11.2942 159.883 11.5461C160.309 11.7785 160.707 12.0885 161.075 12.4759C161.733 13.2315 162.14 14.1032 162.295 15.0912C162.469 16.0598 162.547 17.009 162.528 17.9389V26.2205H158.779L158.692 24.3317ZM158.547 19.4499H155.554C155.263 19.4499 154.934 19.479 154.566 19.5371C154.198 19.5952 153.878 19.7017 153.607 19.8567C153.335 20.0117 153.103 20.2151 152.909 20.4669C152.735 20.7188 152.648 21.0287 152.648 21.3968C152.648 21.7068 152.706 21.978 152.822 22.2104C152.958 22.4429 153.122 22.6366 153.316 22.7916C153.529 22.9466 153.781 23.0725 154.072 23.1693C154.362 23.2468 154.653 23.2856 154.943 23.2856C155.505 23.305 156.028 23.2081 156.512 22.995C157.016 22.7819 157.452 22.4816 157.82 22.0942C158.053 21.7842 158.227 21.4355 158.343 21.0481C158.479 20.6413 158.547 20.1086 158.547 19.4499Z" fill="#0B0B0B"/>
<path d="M146.436 13.8707L138.998 22.6462H146.436V26.2204H133.651V23.2274L141.032 14.4518H133.651V10.9067H146.436V13.8707Z" fill="#0B0B0B"/>
<path d="M128.724 3.7876C129.479 3.7876 130.09 4.01038 130.555 4.45594C131.019 4.90149 131.252 5.49234 131.252 6.22848C131.252 7.00337 131.019 7.61359 130.555 8.05915C130.09 8.48534 129.479 8.69843 128.724 8.69843C127.988 8.69843 127.377 8.48534 126.893 8.05915C126.428 7.61359 126.196 7.00337 126.196 6.22848C126.196 5.49234 126.428 4.90149 126.893 4.45594C127.377 4.01038 127.988 3.7876 128.724 3.7876ZM130.787 26.2205H126.69V10.9069H130.787V26.2205Z" fill="#0B0B0B"/>
<path d="M112.791 12.8538C114.031 11.3621 115.562 10.6066 117.382 10.5872C118.37 10.5679 119.242 10.7325 119.998 11.0812C120.753 11.4105 121.363 11.8658 121.828 12.4469C122.39 13.125 122.778 13.9192 122.991 14.8297C123.204 15.7208 123.31 16.7185 123.31 17.8227V26.2205H119.184V18.1423C119.184 17.5999 119.126 17.0866 119.01 16.6023C118.913 16.0986 118.739 15.6724 118.487 15.3237C118.235 14.9556 117.896 14.6844 117.47 14.5101C117.063 14.3357 116.598 14.2486 116.075 14.2486C115.416 14.2679 114.854 14.4132 114.39 14.6844C113.944 14.9556 113.605 15.3043 113.372 15.7305C113.14 16.1373 112.975 16.6023 112.878 17.1253C112.801 17.629 112.762 18.1424 112.762 18.6654V26.2205H108.665V10.9069H112.588L112.791 12.8538Z" fill="#0B0B0B"/>
<path d="M101.625 24.3317C101.044 25.1066 100.337 25.6587 99.5042 25.988C98.6712 26.3173 97.7026 26.4723 96.5984 26.4529C95.1842 26.4142 94.0025 26.0171 93.0533 25.2615C92.5496 24.8354 92.1525 24.3317 91.8619 23.7505C91.5907 23.15 91.4551 22.4429 91.4551 21.6293C91.4745 20.7963 91.6585 20.0601 92.0072 19.4208C92.3753 18.7622 92.9274 18.2198 93.6635 17.7936C94.2834 17.4643 94.9808 17.2318 95.7557 17.0962C96.5499 16.9606 97.412 16.8928 98.3419 16.8928H101.48C101.538 15.9436 101.315 15.2365 100.812 14.7715C100.328 14.2872 99.6398 14.0354 98.7487 14.016C98.4581 14.016 98.1578 14.0354 97.8479 14.0741C97.5379 14.1129 97.2473 14.1904 96.9761 14.3066C96.7243 14.4228 96.5015 14.5875 96.3078 14.8006C96.1334 14.9943 96.0172 15.2365 95.9591 15.527H91.7457C91.8425 14.5972 92.0944 13.8223 92.5012 13.2024C92.9274 12.5631 93.4601 12.0498 94.0994 11.6623C94.7387 11.2749 95.4457 11.0037 96.2206 10.8487C97.0149 10.6743 97.8285 10.5872 98.6615 10.5872C99.1264 10.5872 99.6011 10.6162 100.085 10.6743C100.57 10.7131 101.044 10.8099 101.509 10.9649C101.974 11.1005 102.41 11.2942 102.817 11.5461C103.243 11.7785 103.64 12.0885 104.008 12.4759C104.667 13.2315 105.074 14.1032 105.229 15.0912C105.403 16.0598 105.48 17.009 105.461 17.9389V26.2205H101.713L101.625 24.3317ZM101.48 19.4499H98.4872C98.1966 19.4499 97.8672 19.479 97.4992 19.5371C97.1311 19.5952 96.8115 19.7017 96.5403 19.8567C96.2691 20.0117 96.0366 20.2151 95.8429 20.4669C95.6685 20.7188 95.5813 21.0287 95.5813 21.3968C95.5813 21.7068 95.6395 21.978 95.7557 22.2104C95.8913 22.4429 96.056 22.6366 96.2497 22.7916C96.4628 22.9466 96.7146 23.0725 97.0052 23.1693C97.2958 23.2468 97.5864 23.2856 97.8769 23.2856C98.4387 23.305 98.9618 23.2081 99.4461 22.995C99.9498 22.7819 100.386 22.4816 100.754 22.0942C100.986 21.7842 101.161 21.4355 101.277 21.0481C101.412 20.6413 101.48 20.1086 101.48 19.4499Z" fill="#0B0B0B"/>
<path d="M84.6372 24.6513C84.0561 25.31 83.3587 25.7749 82.545 26.0461C81.7314 26.3173 80.85 26.4529 79.9007 26.4529C78.9515 26.4529 78.0216 26.3076 77.1112 26.017C76.22 25.7071 75.4452 25.2131 74.7865 24.5351C74.0504 23.7602 73.537 22.8691 73.2464 21.8617C72.9558 20.8544 72.8105 19.818 72.8105 18.7525C72.8105 16.2341 73.5079 14.2194 74.9027 12.7084C75.5033 12.0497 76.2782 11.5364 77.2274 11.1683C78.196 10.8002 79.2324 10.6259 80.3366 10.6453C81.0534 10.6065 81.8283 10.7324 82.6613 11.023C83.4943 11.3136 84.211 11.7979 84.8116 12.4759L85.2474 10.9068H88.7925V25.2615C88.7925 25.8814 88.7538 26.4917 88.6763 27.0922C88.6182 27.7121 88.5116 28.303 88.3567 28.8647C88.2017 29.4459 87.9692 29.998 87.6593 30.5211C87.3106 31.1603 86.8844 31.7028 86.3807 32.1483C85.8964 32.5939 85.354 32.9619 84.7535 33.2525C84.1529 33.5625 83.5136 33.7853 82.8356 33.9209C82.1576 34.0565 81.4699 34.1243 80.7725 34.1243C79.8814 34.1243 79.029 34.0177 78.2154 33.8046C77.4017 33.6109 76.6559 33.2816 75.9779 32.8167C75.3192 32.3711 74.7671 31.7996 74.3216 31.1022C73.8954 30.4048 73.6145 29.5718 73.4789 28.6032H77.8376C77.9151 29.0682 78.2251 29.4847 78.7675 29.8527C79.3099 30.2208 79.9685 30.4048 80.7434 30.4048C81.5764 30.4048 82.2545 30.2402 82.7775 29.9108C83.3199 29.5815 83.7267 29.1456 83.9979 28.6032C84.2692 28.0608 84.4435 27.4409 84.521 26.7435C84.5985 26.0461 84.6372 25.3487 84.6372 24.6513ZM80.8306 22.8206C81.4699 22.8206 82.0317 22.7044 82.516 22.4719C83.0197 22.2395 83.4265 21.9295 83.7364 21.5421C84.0464 21.1353 84.2788 20.6703 84.4338 20.1473C84.5888 19.6049 84.6663 19.0334 84.6663 18.4329C84.6663 17.2318 84.3273 16.2438 83.6492 15.4689C82.9906 14.6747 82.0414 14.2679 80.8015 14.2485C80.1623 14.2485 79.5908 14.3647 79.0871 14.5972C78.6028 14.8296 78.196 15.1396 77.8667 15.527C77.5567 15.9145 77.3243 16.3697 77.1693 16.8928C77.0143 17.4158 76.9368 17.9776 76.9368 18.5781C76.9368 19.2174 77.0143 19.7986 77.1693 20.3216C77.3436 20.8253 77.5955 21.2709 77.9248 21.6583C78.2541 22.0264 78.6609 22.317 79.1452 22.5301C79.6295 22.7238 80.1913 22.8206 80.8306 22.8206Z" fill="#0B0B0B"/>
<path d="M65.739 12.8246C66.3589 12.0885 67.0176 11.5364 67.715 11.1683C68.4318 10.8002 69.2841 10.6162 70.2721 10.6162C70.5239 10.6162 70.7661 10.6259 70.9986 10.6453C71.231 10.6646 71.4441 10.6937 71.6378 10.7324V14.51C71.1923 14.51 70.737 14.5197 70.2721 14.5391C69.8266 14.5391 69.4004 14.5778 68.9935 14.6553C68.5867 14.7328 68.1896 14.8587 67.8022 15.0331C67.4341 15.188 67.1048 15.4205 66.8142 15.7304C66.3686 16.2341 66.0877 16.7765 65.9715 17.3577C65.8746 17.9389 65.8262 18.5975 65.8262 19.3337V26.2205H61.729V10.9068H65.5066L65.739 12.8246Z" fill="#0B0B0B"/>
<path d="M51.3398 26.4529C48.8602 26.4529 46.952 25.7555 45.6154 24.3607C44.2787 22.9466 43.6104 20.99 43.6104 18.491C43.6104 17.2899 43.7847 16.2051 44.1334 15.2365C44.5015 14.2485 45.0051 13.4058 45.6444 12.7084C46.3031 12.011 47.107 11.488 48.0563 11.1393C49.0249 10.7712 50.1194 10.5872 51.3398 10.5872C52.5409 10.5872 53.6161 10.7712 54.5653 11.1393C55.5339 11.488 56.3475 12.011 57.0062 12.7084C57.6842 13.4058 58.1976 14.2485 58.5463 15.2365C58.9143 16.2051 59.0984 17.2899 59.0984 18.491C59.0984 21.0094 58.4203 22.9659 57.0643 24.3607C55.7276 25.7555 53.8195 26.4529 51.3398 26.4529ZM51.3398 14.2485C50.0806 14.2485 49.1508 14.6553 48.5502 15.4689C47.9497 16.2826 47.6494 17.2996 47.6494 18.52C47.6494 19.7599 47.9497 20.7866 48.5502 21.6002C49.1508 22.4138 50.0806 22.8207 51.3398 22.8207C52.599 22.8207 53.5192 22.4138 54.1004 21.6002C54.6815 20.7866 54.9721 19.7599 54.9721 18.52C54.9721 17.2996 54.6815 16.2826 54.1004 15.4689C53.5192 14.6553 52.599 14.2485 51.3398 14.2485Z" fill="#0B0B0B"/>
<path d="M15.601 3.526C15.601 2.33176 14.6279 1.34766 13.4461 1.51944C12.22 1.69766 11.0179 2.02771 9.86804 2.504C8.05048 3.25685 6.39901 4.36034 5.00791 5.75144C3.6168 7.14254 2.51332 8.79401 1.76047 10.6116C1.00761 12.4291 0.620116 14.3772 0.620116 16.3445C0.620116 18.3118 1.00761 20.2599 1.76047 22.0774C2.51332 23.895 3.6168 25.5465 5.0079 26.9376C6.39901 28.3287 8.05048 29.4321 9.86804 30.185C11.6856 30.9378 13.6337 31.3253 15.601 31.3253L15.601 24.1345C14.578 24.1345 13.565 23.933 12.6198 23.5416C11.6747 23.1501 10.8159 22.5763 10.0926 21.8529C9.3692 21.1295 8.79539 20.2707 8.4039 19.3256C8.01242 18.3805 7.81092 17.3675 7.81092 16.3445C7.81092 15.3215 8.01242 14.3085 8.4039 13.3634C8.79539 12.4182 9.3692 11.5595 10.0926 10.8361C10.8159 10.1127 11.6747 9.53892 12.6198 9.14744C12.8966 9.03278 13.1793 8.93442 13.4663 8.85265C14.6148 8.52539 15.601 7.58634 15.601 6.3921L15.601 3.526Z" fill="#0B0B0B"/>
<path d="M28.218 16.3446C29.4123 16.3446 30.3964 17.3177 30.2246 18.4995C30.0464 19.7256 29.7163 20.9277 29.24 22.0775C28.4872 23.8951 27.3837 25.5466 25.9926 26.9377C24.6015 28.3288 22.95 29.4322 21.1325 30.1851C19.3149 30.938 17.3668 31.3255 15.3995 31.3255L15.3995 24.1346C16.4225 24.1346 17.4355 23.9332 18.3806 23.5417C19.3258 23.1502 20.1845 22.5764 20.9079 21.853C21.6313 21.1296 22.2051 20.2709 22.5966 19.3257C22.7112 19.0489 22.8096 18.7663 22.8914 18.4793C23.2186 17.3308 24.1577 16.3446 25.3519 16.3446L28.218 16.3446Z" fill="#0B0B0B"/>
<path d="M30.7449 1.37036C31.9391 1.37036 32.9232 2.34341 32.7514 3.52523C32.5732 4.75136 32.2432 5.95344 31.7669 7.10328C31.014 8.92084 29.9105 10.5723 28.5194 11.9634C27.1283 13.3545 25.4769 14.458 23.6593 15.2109C22.5095 15.6871 21.3074 16.0172 20.0812 16.1954C18.8994 16.3672 17.9264 15.3831 17.9264 14.1889L17.9264 11.3228C17.9264 10.1285 18.9126 9.18947 20.0611 8.86221C20.3481 8.78044 20.6307 8.68208 20.9075 8.56742C21.8526 8.17594 22.7114 7.60213 23.4348 6.87875C24.1581 6.15538 24.732 5.29661 25.1234 4.35148C25.2381 4.07468 25.3365 3.79205 25.4182 3.50506C25.7455 2.35654 26.6845 1.37036 27.8788 1.37036L30.7449 1.37036Z" fill="#0B0B0B"/>
</svg>
