<svg width="208" height="34" viewBox="0 0 208 34" fill="none" xmlns="http://www.w3.org/2000/svg">
<path d="M196.155 12.8411C197.333 11.4238 198.787 10.706 200.517 10.6876C201.456 10.6692 202.284 10.8257 203.002 11.157C203.72 11.4699 204.3 11.9024 204.741 12.4546C205.275 13.0988 205.643 13.8534 205.846 14.7185C206.048 15.5651 206.149 16.513 206.149 17.5622V25.541H202.229V17.8658C202.229 17.3505 202.174 16.8627 202.063 16.4026C201.971 15.924 201.806 15.5191 201.566 15.1878C201.327 14.8381 201.005 14.5804 200.6 14.4148C200.213 14.2491 199.772 14.1663 199.275 14.1663C198.649 14.1847 198.115 14.3227 197.674 14.5804C197.25 14.8381 196.928 15.1694 196.707 15.5743C196.486 15.9609 196.33 16.4026 196.238 16.8995C196.164 17.3781 196.127 17.8658 196.127 18.3628V25.541H192.235V10.9913H195.962L196.155 12.8411Z" fill="#BABABA"/>
<path d="M182.363 25.7618C180.007 25.7618 178.195 25.0992 176.925 23.774C175.655 22.4304 175.02 20.5714 175.02 18.197C175.02 17.0559 175.185 16.0252 175.516 15.1049C175.866 14.1662 176.345 13.3655 176.952 12.7029C177.578 12.0403 178.342 11.5434 179.244 11.2121C180.164 10.8624 181.204 10.6875 182.363 10.6875C183.505 10.6875 184.526 10.8624 185.428 11.2121C186.348 11.5434 187.121 12.0403 187.747 12.7029C188.391 13.3655 188.879 14.1662 189.21 15.1049C189.56 16.0252 189.735 17.0559 189.735 18.197C189.735 20.5898 189.091 22.4488 187.802 23.774C186.532 25.0992 184.719 25.7618 182.363 25.7618ZM182.363 14.1662C181.167 14.1662 180.284 14.5527 179.713 15.3257C179.142 16.0988 178.857 17.0651 178.857 18.2246C178.857 19.4026 179.142 20.3781 179.713 21.1512C180.284 21.9242 181.167 22.3107 182.363 22.3107C183.56 22.3107 184.434 21.9242 184.986 21.1512C185.538 20.3781 185.814 19.4026 185.814 18.2246C185.814 17.0651 185.538 16.0988 184.986 15.3257C184.434 14.5527 183.56 14.1662 182.363 14.1662Z" fill="#BABABA"/>
<path d="M170.338 4.22717C171.056 4.22717 171.636 4.43884 172.078 4.86217C172.52 5.2855 172.74 5.84688 172.74 6.54629C172.74 7.28252 172.52 7.8623 172.078 8.28564C171.636 8.69056 171.056 8.89302 170.338 8.89302C169.639 8.89302 169.059 8.69056 168.599 8.28564C168.157 7.8623 167.937 7.28252 167.937 6.54629C167.937 5.84688 168.157 5.2855 168.599 4.86217C169.059 4.43884 169.639 4.22717 170.338 4.22717ZM172.299 25.541H168.406V10.9913H172.299V25.541Z" fill="#BABABA"/>
<path d="M162.614 14.3871V20.2677C162.614 21.5193 163.249 22.1451 164.519 22.1451H165.954V25.541H164.132C162.2 25.6146 160.81 25.2465 159.963 24.4366C159.135 23.6268 158.721 22.4028 158.721 20.7647V14.3871H156.512V10.9912H158.721V7.04321H162.614V10.9912H166.092V14.3871H162.614Z" fill="#BABABA"/>
<path d="M150.901 23.7464C150.349 24.4826 149.677 25.0072 148.886 25.3201C148.094 25.633 147.174 25.7802 146.125 25.7618C144.781 25.725 143.658 25.3477 142.757 24.6298C142.278 24.2249 141.901 23.7464 141.625 23.1942C141.367 22.6236 141.238 21.9518 141.238 21.1788C141.256 20.3873 141.431 19.6879 141.763 19.0805C142.112 18.4547 142.637 17.9394 143.336 17.5344C143.925 17.2215 144.588 17.0007 145.324 16.8718C146.079 16.743 146.898 16.6786 147.781 16.6786H150.763C150.818 15.7767 150.607 15.1049 150.128 14.6631C149.668 14.203 149.014 13.9637 148.168 13.9453C147.892 13.9453 147.606 13.9637 147.312 14.0005C147.017 14.0373 146.741 14.111 146.484 14.2214C146.244 14.3318 146.033 14.4883 145.849 14.6907C145.683 14.8748 145.573 15.1049 145.517 15.381H141.514C141.606 14.4975 141.845 13.7613 142.232 13.1723C142.637 12.5649 143.143 12.0771 143.75 11.709C144.358 11.3409 145.03 11.0832 145.766 10.936C146.52 10.7703 147.294 10.6875 148.085 10.6875C148.527 10.6875 148.978 10.7151 149.438 10.7703C149.898 10.8071 150.349 10.8992 150.791 11.0464C151.232 11.1753 151.646 11.3593 152.033 11.5986C152.438 11.8195 152.815 12.1139 153.165 12.4821C153.791 13.1999 154.177 14.0281 154.325 14.9668C154.49 15.8871 154.564 16.789 154.545 17.6725V25.5409H150.984L150.901 23.7464ZM150.763 19.1081H147.919C147.643 19.1081 147.33 19.1357 146.981 19.1909C146.631 19.2462 146.327 19.3474 146.07 19.4946C145.812 19.6419 145.591 19.8351 145.407 20.0744C145.241 20.3137 145.158 20.6082 145.158 20.9579C145.158 21.2524 145.214 21.5101 145.324 21.7309C145.453 21.9518 145.609 22.1359 145.793 22.2831C145.996 22.4304 146.235 22.55 146.511 22.642C146.787 22.7156 147.063 22.7525 147.34 22.7525C147.873 22.7709 148.37 22.6788 148.83 22.4764C149.309 22.2739 149.723 21.9886 150.073 21.6205C150.294 21.326 150.459 20.9947 150.57 20.6266C150.699 20.2401 150.763 19.7339 150.763 19.1081Z" fill="#BABABA"/>
<path d="M139.257 13.8073L132.189 22.1451H139.257V25.5409H127.109V22.6973L134.121 14.3595H127.109V10.9912H139.257V13.8073Z" fill="#BABABA"/>
<path d="M122.428 4.22717C123.146 4.22717 123.725 4.43884 124.167 4.86217C124.609 5.2855 124.83 5.84688 124.83 6.54629C124.83 7.28252 124.609 7.8623 124.167 8.28564C123.725 8.69056 123.146 8.89302 122.428 8.89302C121.728 8.89302 121.149 8.69056 120.688 8.28564C120.247 7.8623 120.026 7.28252 120.026 6.54629C120.026 5.84688 120.247 5.2855 120.688 4.86217C121.149 4.43884 121.728 4.22717 122.428 4.22717ZM124.388 25.541H120.495V10.9913H124.388V25.541Z" fill="#BABABA"/>
<path d="M107.29 12.8411C108.468 11.4238 109.922 10.706 111.652 10.6876C112.591 10.6692 113.419 10.8257 114.137 11.157C114.855 11.4699 115.434 11.9024 115.876 12.4546C116.41 13.0988 116.778 13.8534 116.98 14.7185C117.183 15.5651 117.284 16.513 117.284 17.5622V25.541H113.364V17.8658C113.364 17.3505 113.308 16.8627 113.198 16.4026C113.106 15.924 112.94 15.5191 112.701 15.1878C112.462 14.8381 112.14 14.5804 111.735 14.4148C111.348 14.2491 110.907 14.1663 110.41 14.1663C109.784 14.1847 109.25 14.3227 108.808 14.5804C108.385 14.8381 108.063 15.1694 107.842 15.5743C107.621 15.9609 107.465 16.4026 107.373 16.8995C107.299 17.3781 107.262 17.8658 107.262 18.3628V25.541H103.369V10.9913H107.097L107.29 12.8411Z" fill="#BABABA"/>
<path d="M96.6813 23.7464C96.1291 24.4826 95.4573 25.0072 94.6659 25.3201C93.8744 25.633 92.9542 25.7802 91.905 25.7618C90.5614 25.725 89.4387 25.3477 88.5368 24.6298C88.0582 24.2249 87.6809 23.7464 87.4048 23.1942C87.1471 22.6236 87.0183 21.9518 87.0183 21.1788C87.0367 20.3873 87.2116 19.6879 87.5429 19.0805C87.8926 18.4547 88.4171 17.9394 89.1166 17.5344C89.7055 17.2215 90.3682 17.0007 91.1044 16.8718C91.859 16.743 92.6781 16.6786 93.5615 16.6786H96.5433C96.5985 15.7767 96.3868 15.1049 95.9083 14.6631C95.4481 14.203 94.7947 13.9637 93.9481 13.9453C93.672 13.9453 93.3867 13.9637 93.0922 14.0005C92.7977 14.0373 92.5216 14.111 92.2639 14.2214C92.0247 14.3318 91.813 14.4883 91.6289 14.6907C91.4633 14.8748 91.3529 15.1049 91.2976 15.381H87.2944C87.3864 14.4975 87.6257 13.7613 88.0122 13.1723C88.4171 12.5649 88.9233 12.0771 89.5307 11.709C90.1381 11.3409 90.8099 11.0832 91.5461 10.936C92.3008 10.7703 93.0738 10.6875 93.8652 10.6875C94.307 10.6875 94.7579 10.7151 95.2181 10.7703C95.6782 10.8071 96.1291 10.8992 96.5709 11.0464C97.0126 11.1753 97.4268 11.3593 97.8133 11.5986C98.2182 11.8195 98.5955 12.1139 98.9452 12.4821C99.571 13.1999 99.9575 14.0281 100.105 14.9668C100.27 15.8871 100.344 16.789 100.326 17.6725V25.5409H96.7641L96.6813 23.7464ZM96.5433 19.1081H93.6996C93.4235 19.1081 93.1106 19.1357 92.7609 19.1909C92.4112 19.2462 92.1075 19.3474 91.8498 19.4946C91.5921 19.6419 91.3713 19.8351 91.1872 20.0744C91.0216 20.3137 90.9387 20.6082 90.9387 20.9579C90.9387 21.2524 90.9939 21.5101 91.1044 21.7309C91.2332 21.9518 91.3897 22.1359 91.5737 22.2831C91.7762 22.4304 92.0155 22.55 92.2916 22.642C92.5676 22.7156 92.8437 22.7525 93.1198 22.7525C93.6536 22.7709 94.1505 22.6788 94.6107 22.4764C95.0892 22.2739 95.5033 21.9886 95.8531 21.6205C96.0739 21.326 96.2396 20.9947 96.35 20.6266C96.4789 20.2401 96.5433 19.7339 96.5433 19.1081Z" fill="#BABABA"/>
<path d="M80.5402 24.0502C79.988 24.676 79.3254 25.1177 78.5523 25.3754C77.7793 25.6331 76.9418 25.7619 76.04 25.7619C75.1381 25.7619 74.2546 25.6239 73.3895 25.3478C72.5429 25.0533 71.8066 24.5839 71.1809 23.9397C70.4814 23.2035 69.9937 22.3568 69.7176 21.3997C69.4415 20.4426 69.3035 19.4579 69.3035 18.4456C69.3035 16.0529 69.9661 14.1387 71.2913 12.703C71.8619 12.0772 72.5981 11.5895 73.5 11.2398C74.4203 10.8901 75.405 10.7244 76.4541 10.7428C77.1351 10.706 77.8713 10.8256 78.6628 11.1017C79.4542 11.3778 80.1352 11.838 80.7058 12.4822L81.1199 10.9913H84.4882V24.6299C84.4882 25.2189 84.4514 25.7987 84.3778 26.3693C84.3225 26.9583 84.2213 27.5196 84.0741 28.0534C83.9268 28.6056 83.7059 29.1301 83.4115 29.6271C83.0802 30.2345 82.6752 30.7499 82.1967 31.1732C81.7365 31.5965 81.2212 31.9462 80.6506 32.2223C80.08 32.5168 79.4726 32.7285 78.8284 32.8573C78.1842 32.9861 77.5308 33.0506 76.8682 33.0506C76.0216 33.0506 75.2117 32.9493 74.4387 32.7469C73.6656 32.5628 72.957 32.2499 72.3128 31.8082C71.687 31.3848 71.1624 30.8419 70.7391 30.1793C70.3342 29.5167 70.0673 28.7252 69.9385 27.8049H74.0798C74.1534 28.2467 74.4479 28.6424 74.9632 28.9921C75.4786 29.3418 76.1044 29.5167 76.8406 29.5167C77.6321 29.5167 78.2763 29.3602 78.7732 29.0473C79.2886 28.7344 79.6751 28.3203 79.9328 27.8049C80.1905 27.2896 80.3561 26.7006 80.4297 26.038C80.5034 25.3754 80.5402 24.7128 80.5402 24.0502ZM76.9234 22.3108C77.5308 22.3108 78.0646 22.2004 78.5247 21.9795C79.0033 21.7587 79.3898 21.4642 79.6843 21.096C79.9788 20.7095 80.1997 20.2678 80.3469 19.7708C80.4941 19.2555 80.5678 18.7125 80.5678 18.1419C80.5678 17.0008 80.2457 16.0621 79.6015 15.3259C78.9757 14.5712 78.0738 14.1847 76.8958 14.1663C76.2884 14.1663 75.7455 14.2767 75.2669 14.4976C74.8068 14.7185 74.4203 15.013 74.1074 15.3811C73.8129 15.7492 73.592 16.1817 73.4448 16.6787C73.2975 17.1756 73.2239 17.7094 73.2239 18.28C73.2239 18.8874 73.2975 19.4395 73.4448 19.9365C73.6104 20.415 73.8497 20.8384 74.1626 21.2065C74.4755 21.5562 74.862 21.8323 75.3221 22.0347C75.7823 22.2188 76.316 22.3108 76.9234 22.3108Z" fill="#BABABA"/>
<path d="M62.5851 12.8133C63.1741 12.1139 63.7999 11.5894 64.4625 11.2397C65.1435 10.8899 65.9534 10.7151 66.8921 10.7151C67.1313 10.7151 67.3614 10.7243 67.5823 10.7427C67.8032 10.7611 68.0056 10.7887 68.1897 10.8255V14.4146C67.7663 14.4146 67.3338 14.4238 66.8921 14.4422C66.4687 14.4422 66.0638 14.4791 65.6773 14.5527C65.2908 14.6263 64.9135 14.7459 64.5453 14.9116C64.1956 15.0588 63.8827 15.2797 63.6066 15.5742C63.1833 16.0527 62.9164 16.5681 62.806 17.1203C62.714 17.6725 62.668 18.2982 62.668 18.9977V25.5409H58.7751V10.9912H62.3643L62.5851 12.8133Z" fill="#BABABA"/>
<path d="M48.9039 25.7618C46.548 25.7618 44.735 25.0992 43.4651 23.774C42.1951 22.4304 41.5601 20.5714 41.5601 18.197C41.5601 17.0559 41.7257 16.0252 42.057 15.1049C42.4067 14.1662 42.8853 13.3655 43.4927 12.7029C44.1185 12.0403 44.8823 11.5434 45.7842 11.2121C46.7045 10.8624 47.7444 10.6875 48.9039 10.6875C50.0451 10.6875 51.0666 10.8624 51.9685 11.2121C52.8888 11.5434 53.6618 12.0403 54.2876 12.7029C54.9318 13.3655 55.4196 14.1662 55.7509 15.1049C56.1006 16.0252 56.2754 17.0559 56.2754 18.197C56.2754 20.5898 55.6312 22.4488 54.3428 23.774C53.0728 25.0992 51.2599 25.7618 48.9039 25.7618ZM48.9039 14.1662C47.7076 14.1662 46.8241 14.5527 46.2535 15.3257C45.6829 16.0988 45.3977 17.0651 45.3977 18.2246C45.3977 19.4026 45.6829 20.3781 46.2535 21.1512C46.8241 21.9242 47.7076 22.3107 48.9039 22.3107C50.1003 22.3107 50.9746 21.9242 51.5268 21.1512C52.0789 20.3781 52.355 19.4026 52.355 18.2246C52.355 17.0651 52.0789 16.0988 51.5268 15.3257C50.9746 14.5527 50.1003 14.1662 48.9039 14.1662Z" fill="#BABABA"/>
<path d="M14.9481 3.77689C14.9481 2.64223 14.0236 1.70722 12.9007 1.87043C11.7358 2.03976 10.5937 2.35335 9.50119 2.80587C7.7743 3.52118 6.2052 4.56961 4.8835 5.89131C3.5618 7.21302 2.51336 8.78211 1.79806 10.509C1.08276 12.2359 0.714599 14.0868 0.714599 15.9559C0.714599 17.8251 1.08276 19.676 1.79806 21.4029C2.51336 23.1298 3.5618 24.6988 4.8835 26.0205C6.2052 27.3422 7.7743 28.3907 9.50119 29.106C11.2281 29.8213 13.0789 30.1894 14.9481 30.1894L14.9481 23.3574C13.9761 23.3574 13.0137 23.1659 12.1157 22.794C11.2177 22.422 10.4018 21.8768 9.71452 21.1895C9.02723 20.5022 8.48204 19.6863 8.11009 18.7883C7.73813 17.8904 7.54669 16.9279 7.54669 15.9559C7.54669 14.984 7.73813 14.0215 8.11009 13.1235C8.48204 12.2255 9.02723 11.4096 9.71452 10.7223C10.4018 10.035 11.2177 9.48986 12.1157 9.1179C12.3787 9.00896 12.6472 8.91551 12.9199 8.83782C14.0111 8.52689 14.9481 7.63468 14.9481 6.50002L14.9481 3.77689Z" fill="#BABABA"/>
<path d="M26.9358 15.9559C28.0704 15.9559 29.0054 16.8804 28.8422 18.0033C28.6729 19.1683 28.3593 20.3104 27.9068 21.4029C27.1915 23.1298 26.143 24.6988 24.8213 26.0206C23.4996 27.3423 21.9305 28.3907 20.2037 29.106C18.4768 29.8213 16.6259 30.1895 14.7567 30.1895L14.7567 23.3574C15.7287 23.3574 16.6911 23.1659 17.5891 22.794C18.4871 22.422 19.303 21.8768 19.9903 21.1895C20.6776 20.5022 21.2228 19.6863 21.5947 18.7883C21.7037 18.5253 21.7971 18.2568 21.8748 17.9841C22.1858 16.8929 23.078 15.9559 24.2126 15.9559L26.9358 15.9559Z" fill="#BABABA"/>
<path d="M29.3361 1.72888C30.4708 1.72888 31.4058 2.65339 31.2426 3.77625C31.0733 4.94122 30.7597 6.08333 30.3072 7.17581C29.5919 8.9027 28.5434 10.4718 27.2217 11.7935C25.9 13.1152 24.3309 14.1636 22.604 14.8789C21.5116 15.3315 20.3694 15.6451 19.2045 15.8144C18.0816 15.9776 17.1571 15.0426 17.1571 13.9079L17.1571 11.1848C17.1571 10.0501 18.0941 9.15793 19.1853 8.847C19.458 8.7693 19.7265 8.67585 19.9895 8.56691C20.8875 8.19496 21.7034 7.64977 22.3907 6.96248C23.078 6.2752 23.6232 5.45927 23.9951 4.56129C24.1041 4.29829 24.1975 4.02977 24.2752 3.75709C24.5861 2.66587 25.4784 1.72888 26.613 1.72888L29.3361 1.72888Z" fill="#BABABA"/>
</svg>
