<svg width="60" height="74" viewBox="0 0 60 74" fill="none" xmlns="http://www.w3.org/2000/svg">
<path fill-rule="evenodd" clip-rule="evenodd" d="M0 36C0 28.268 6.3061 22 14.0851 22H45.9149C53.6939 22 60 28.268 60 36V60C60 67.732 53.6939 74 45.9149 74H14.0851C6.30611 74 0 67.732 0 60V36ZM14.0851 26C8.52867 26 4.02431 30.4772 4.02431 36V60C4.02431 65.5228 8.52867 70 14.0851 70H45.9149C51.4713 70 55.9757 65.5228 55.9757 60V36C55.9757 30.4772 51.4713 26 45.9149 26H14.0851Z" fill="#0B0B0B"/>
<path fill-rule="evenodd" clip-rule="evenodd" d="M30.0076 46.4404C29.1409 46.4404 28.4384 47.1388 28.4384 48.0002C28.4384 48.8616 29.1409 49.5599 30.0076 49.5599C30.8743 49.5599 31.5768 48.8616 31.5768 48.0002C31.5768 47.1388 30.8743 46.4404 30.0076 46.4404ZM24.4141 48.0002C24.4141 44.9296 26.9184 42.4404 30.0076 42.4404C33.0968 42.4404 35.6011 44.9296 35.6011 48.0002C35.6011 51.0707 33.0968 53.5599 30.0076 53.5599C26.9184 53.5599 24.4141 51.0707 24.4141 48.0002Z" fill="#0B0B0B"/>
<path fill-rule="evenodd" clip-rule="evenodd" d="M29.999 4C27.3138 4 24.7669 4.98285 22.912 6.68954C21.0623 8.39141 20.0556 10.6651 20.0556 13V24C20.0556 25.1046 19.1547 26 18.0434 26C16.9321 26 16.0312 25.1046 16.0312 24V13C16.0312 9.50015 17.5438 6.17804 20.1782 3.75411C22.8075 1.335 26.3425 0 29.999 0C33.6555 0 37.1905 1.335 39.8197 3.75411C42.4542 6.17804 43.9667 9.50015 43.9667 13V24C43.9667 25.1046 43.0658 26 41.9546 26C40.8433 26 39.9424 25.1046 39.9424 24V13C39.9424 10.6651 38.9357 8.39141 37.086 6.68954C35.231 4.98285 32.6841 4 29.999 4Z" fill="#0B0B0B"/>
</svg>
