<svg width="162" height="34" viewBox="0 0 162 34" fill="none" xmlns="http://www.w3.org/2000/svg">
<path d="M159.75 15.8326L155.926 16.0679C155.861 15.7411 155.72 15.447 155.505 15.1855C155.289 14.9175 155.005 14.7051 154.652 14.5483C154.305 14.3849 153.89 14.3031 153.407 14.3031C152.76 14.3031 152.214 14.4404 151.769 14.7149C151.325 14.9829 151.103 15.3424 151.103 15.7934C151.103 16.1529 151.246 16.4568 151.534 16.7052C151.822 16.9535 152.315 17.1529 153.014 17.3032L155.74 17.8523C157.204 18.1529 158.296 18.6366 159.015 19.3033C159.734 19.97 160.093 20.8458 160.093 21.9308C160.093 22.9178 159.802 23.7838 159.22 24.5289C158.645 25.274 157.854 25.8557 156.848 26.2741C155.848 26.6858 154.694 26.8917 153.387 26.8917C151.393 26.8917 149.805 26.4767 148.622 25.6466C147.446 24.81 146.756 23.6727 146.553 22.2347L150.661 22.019C150.786 22.6269 151.086 23.091 151.563 23.4112C152.041 23.725 152.652 23.8818 153.397 23.8818C154.129 23.8818 154.717 23.7413 155.162 23.4603C155.613 23.1727 155.841 22.8034 155.848 22.3524C155.841 21.9733 155.681 21.6628 155.367 21.421C155.054 21.1726 154.57 20.9831 153.916 20.8523L151.308 20.3327C149.838 20.0386 148.743 19.5288 148.024 18.8033C147.312 18.0778 146.955 17.1529 146.955 16.0287C146.955 15.0613 147.217 14.228 147.74 13.5286C148.269 12.8293 149.011 12.29 149.965 11.9109C150.926 11.5318 152.05 11.3423 153.338 11.3423C155.24 11.3423 156.737 11.7443 157.828 12.5482C158.926 13.3521 159.567 14.4469 159.75 15.8326Z" fill="#BABABA"/>
<path d="M144.247 15.8326L140.423 16.0679C140.358 15.7411 140.217 15.447 140.002 15.1855C139.786 14.9175 139.502 14.7051 139.149 14.5483C138.802 14.3849 138.387 14.3031 137.904 14.3031C137.257 14.3031 136.711 14.4404 136.266 14.7149C135.822 14.9829 135.6 15.3424 135.6 15.7934C135.6 16.1529 135.743 16.4568 136.031 16.7052C136.319 16.9535 136.812 17.1529 137.512 17.3032L140.237 17.8523C141.701 18.1529 142.793 18.6366 143.512 19.3033C144.231 19.97 144.59 20.8458 144.59 21.9308C144.59 22.9178 144.299 23.7838 143.718 24.5289C143.142 25.274 142.352 25.8557 141.345 26.2741C140.345 26.6858 139.191 26.8917 137.884 26.8917C135.891 26.8917 134.302 26.4767 133.119 25.6466C131.943 24.81 131.253 23.6727 131.051 22.2347L135.158 22.019C135.283 22.6269 135.583 23.091 136.06 23.4112C136.538 23.725 137.149 23.8818 137.894 23.8818C138.626 23.8818 139.214 23.7413 139.659 23.4603C140.11 23.1727 140.338 22.8034 140.345 22.3524C140.338 21.9733 140.178 21.6628 139.865 21.421C139.551 21.1726 139.067 20.9831 138.413 20.8523L135.806 20.3327C134.335 20.0386 133.24 19.5288 132.521 18.8033C131.809 18.0778 131.453 17.1529 131.453 16.0287C131.453 15.0613 131.714 14.228 132.237 13.5286C132.766 12.8293 133.508 12.29 134.462 11.9109C135.423 11.5318 136.547 11.3423 137.835 11.3423C139.737 11.3423 141.234 11.7443 142.325 12.5482C143.423 13.3521 144.064 14.4469 144.247 15.8326Z" fill="#BABABA"/>
<path d="M122.08 26.8917C120.531 26.8917 119.197 26.578 118.08 25.9505C116.968 25.3165 116.112 24.4211 115.511 23.2642C114.91 22.1007 114.609 20.7249 114.609 19.1366C114.609 17.5876 114.91 16.228 115.511 15.0581C116.112 13.8881 116.959 12.9763 118.05 12.3227C119.148 11.6691 120.436 11.3423 121.913 11.3423C122.906 11.3423 123.831 11.5024 124.688 11.8227C125.55 12.1364 126.302 12.6103 126.943 13.2443C127.59 13.8783 128.093 14.6757 128.452 15.6365C128.812 16.5908 128.992 17.7085 128.992 18.9896V20.1366H116.276V17.5483H125.06C125.06 16.947 124.929 16.4143 124.668 15.9503C124.407 15.4862 124.044 15.1234 123.58 14.862C123.122 14.594 122.589 14.46 121.982 14.46C121.348 14.46 120.786 14.6071 120.295 14.9012C119.812 15.1888 119.433 15.5777 119.158 16.0679C118.884 16.5516 118.743 17.0908 118.736 17.6856V20.1464C118.736 20.8916 118.874 21.5354 119.148 22.0779C119.429 22.6204 119.825 23.0387 120.335 23.3328C120.844 23.6269 121.449 23.774 122.148 23.774C122.612 23.774 123.037 23.7086 123.423 23.5779C123.808 23.4472 124.139 23.2511 124.413 22.9897C124.688 22.7282 124.897 22.4079 125.041 22.0288L128.903 22.2838C128.707 23.2119 128.305 24.0224 127.697 24.7152C127.096 25.4015 126.318 25.9374 125.364 26.3231C124.416 26.7022 123.322 26.8917 122.08 26.8917Z" fill="#BABABA"/>
<path d="M102.219 17.8915V26.5976H98.0425V11.5384H102.023V14.1953H102.199C102.533 13.3195 103.092 12.6266 103.876 12.1168C104.66 11.6005 105.611 11.3423 106.729 11.3423C107.775 11.3423 108.687 11.571 109.464 12.0286C110.242 12.4861 110.847 13.1397 111.278 13.9894C111.71 14.8326 111.925 15.8391 111.925 17.0091V26.5976H107.749V17.7542C107.755 16.8326 107.52 16.1137 107.043 15.5973C106.566 15.0744 105.909 14.813 105.072 14.813C104.51 14.813 104.013 14.9339 103.582 15.1757C103.157 15.4176 102.824 15.7705 102.582 16.2346C102.347 16.6921 102.226 17.2444 102.219 17.8915Z" fill="#BABABA"/>
<path d="M90.5201 26.5975V11.5383H94.6967V26.5975H90.5201ZM92.6182 9.59707C91.9973 9.59707 91.4646 9.39118 91.0202 8.9794C90.5822 8.56109 90.3633 8.06108 90.3633 7.47936C90.3633 6.90418 90.5822 6.4107 91.0202 5.99893C91.4646 5.58062 91.9973 5.37146 92.6182 5.37146C93.2392 5.37146 93.7686 5.58062 94.2065 5.99893C94.651 6.4107 94.8732 6.90418 94.8732 7.47936C94.8732 8.06108 94.651 8.56109 94.2065 8.9794C93.7686 9.39118 93.2392 9.59707 92.6182 9.59707Z" fill="#BABABA"/>
<path d="M87.547 15.8326L83.7234 16.0679C83.658 15.7411 83.5175 15.447 83.3018 15.1855C83.0861 14.9175 82.8018 14.7051 82.4488 14.5483C82.1024 14.3849 81.6874 14.3031 81.2037 14.3031C80.5566 14.3031 80.0109 14.4404 79.5664 14.7149C79.122 14.9829 78.8997 15.3424 78.8997 15.7934C78.8997 16.1529 79.0435 16.4568 79.3311 16.7052C79.6187 16.9535 80.1122 17.1529 80.8115 17.3032L83.5371 17.8523C85.0012 18.1529 86.0927 18.6366 86.8117 19.3033C87.5307 19.97 87.8902 20.8458 87.8902 21.9308C87.8902 22.9178 87.5993 23.7838 87.0176 24.5289C86.4424 25.274 85.6515 25.8557 84.645 26.2741C83.645 26.6858 82.4913 26.8917 81.1841 26.8917C79.1906 26.8917 77.6023 26.4767 76.4193 25.6466C75.2428 24.81 74.5532 23.6727 74.3506 22.2347L78.4585 22.019C78.5827 22.6269 78.8834 23.091 79.3605 23.4112C79.8377 23.725 80.4488 23.8818 81.1939 23.8818C81.926 23.8818 82.5142 23.7413 82.9587 23.4603C83.4097 23.1727 83.6384 22.8034 83.645 22.3524C83.6384 21.9733 83.4783 21.6628 83.1645 21.421C82.8508 21.1726 82.3671 20.9831 81.7135 20.8523L79.1056 20.3327C77.635 20.0386 76.5402 19.5288 75.8212 18.8033C75.1088 18.0778 74.7526 17.1529 74.7526 16.0287C74.7526 15.0613 75.014 14.228 75.5369 13.5286C76.0663 12.8293 76.8082 12.29 77.7624 11.9109C78.7233 11.5318 79.8475 11.3423 81.1351 11.3423C83.0371 11.3423 84.5339 11.7443 85.6254 12.5482C86.7235 13.3521 87.364 14.4469 87.547 15.8326Z" fill="#BABABA"/>
<path d="M67.4999 20.1856V11.5383H71.6765V26.5976H67.6666V23.8622H67.5097C67.1698 24.7446 66.6044 25.4537 65.8136 25.9897C65.0292 26.5257 64.0717 26.7936 62.941 26.7936C61.9344 26.7936 61.0487 26.5649 60.284 26.1074C59.5193 25.6498 58.9212 24.9995 58.4898 24.1563C58.065 23.3132 57.8493 22.3033 57.8428 21.1268V11.5383H62.0194V20.3817C62.0259 21.2706 62.2645 21.9733 62.7351 22.4896C63.2057 23.006 63.8364 23.2641 64.6273 23.2641C65.1306 23.2641 65.6012 23.1498 66.0391 22.921C66.477 22.6857 66.8299 22.3393 67.0979 21.8817C67.3724 21.4242 67.5064 20.8588 67.4999 20.1856Z" fill="#BABABA"/>
<path d="M40.3691 26.5975V6.51855H44.5457V14.0678H44.6732C44.8562 13.6625 45.1209 13.2508 45.4673 12.8325C45.8203 12.4076 46.2778 12.0547 46.8399 11.7736C47.4085 11.486 48.1144 11.3422 48.9576 11.3422C50.0557 11.3422 51.0688 11.6298 51.9969 12.205C52.925 12.7736 53.6669 13.6331 54.2225 14.7835C54.778 15.9273 55.0558 17.362 55.0558 19.0875C55.0558 20.7673 54.7846 22.1856 54.2421 23.3425C53.7061 24.4929 52.9741 25.3655 52.0459 25.9603C51.1243 26.5485 50.0916 26.8426 48.9478 26.8426C48.1373 26.8426 47.4478 26.7086 46.8791 26.4407C46.317 26.1727 45.8562 25.8361 45.4967 25.4308C45.1372 25.0191 44.8627 24.604 44.6732 24.1857H44.4869V26.5975H40.3691ZM44.4575 19.0679C44.4575 19.9634 44.5817 20.7444 44.83 21.4111C45.0784 22.0778 45.4379 22.5974 45.9085 22.97C46.3791 23.336 46.951 23.519 47.6242 23.519C48.304 23.519 48.8792 23.3327 49.3498 22.9602C49.8204 22.5811 50.1766 22.0582 50.4184 21.3915C50.6668 20.7183 50.791 19.9438 50.791 19.0679C50.791 18.1986 50.6701 17.4339 50.4282 16.7737C50.1864 16.1136 49.8302 15.5972 49.3596 15.2247C48.889 14.8521 48.3105 14.6658 47.6242 14.6658C46.9445 14.6658 46.3693 14.8456 45.8987 15.2051C45.4346 15.5646 45.0784 16.0744 44.83 16.7345C44.5817 17.3947 44.4575 18.1725 44.4575 19.0679Z" fill="#BABABA"/>
<path fill-rule="evenodd" clip-rule="evenodd" d="M16.5198 12.3461L21.0377 16.864L16.7359 21.1657L12.218 16.6478L16.5198 12.3461ZM11.8876 7.71393L9.05505 4.88137C8.89348 4.7198 8.89348 4.45784 9.05505 4.29627L13.1021 0.249231C13.2637 0.0876586 13.5256 0.0876585 13.6872 0.249231L27.5227 14.0847C29.0576 15.6197 29.0576 18.1083 27.5227 19.6433L21.3681 25.7979L24.2006 28.6304C24.3622 28.792 24.3622 29.054 24.2006 29.2156L20.1536 33.2626C19.992 33.4242 19.7301 33.4242 19.5685 33.2626L5.733 19.4271C4.19805 17.8922 4.19805 15.4035 5.733 13.8685L11.8876 7.71393Z" fill="#BABABA"/>
</svg>
