<svg width="170" height="36" viewBox="0 0 170 36" fill="none" xmlns="http://www.w3.org/2000/svg">
<path d="M168.137 16.7279L164.113 16.9756C164.044 16.6316 163.896 16.322 163.669 16.0469C163.442 15.7648 163.143 15.5412 162.772 15.3761C162.407 15.2041 161.97 15.1182 161.461 15.1182C160.78 15.1182 160.206 15.2626 159.738 15.5515C159.27 15.8336 159.036 16.212 159.036 16.6866C159.036 17.065 159.187 17.3849 159.49 17.6463C159.793 17.9077 160.312 18.1175 161.048 18.2758L163.917 18.8536C165.458 19.1701 166.607 19.6791 167.363 20.3808C168.12 21.0825 168.499 22.0043 168.499 23.1463C168.499 24.1851 168.192 25.0966 167.58 25.8808C166.975 26.6651 166.142 27.2773 165.083 27.7176C164.03 28.151 162.816 28.3677 161.44 28.3677C159.342 28.3677 157.671 27.9309 156.425 27.0572C155.187 26.1766 154.461 24.9796 154.248 23.4662L158.572 23.2392C158.702 23.8789 159.019 24.3674 159.521 24.7045C160.023 25.0347 160.666 25.1998 161.451 25.1998C162.221 25.1998 162.84 25.0519 163.308 24.7561C163.783 24.4534 164.024 24.0647 164.03 23.59C164.024 23.191 163.855 22.8642 163.525 22.6097C163.195 22.3483 162.686 22.1488 161.998 22.0112L159.253 21.4643C157.705 21.1547 156.553 20.6182 155.796 19.8546C155.046 19.091 154.671 18.1175 154.671 16.9343C154.671 15.9162 154.946 15.039 155.497 14.303C156.054 13.5669 156.835 12.9993 157.839 12.6003C158.85 12.2013 160.034 12.0018 161.389 12.0018C163.391 12.0018 164.966 12.4249 166.115 13.2711C167.271 14.1172 167.945 15.2695 168.137 16.7279Z" fill="#0B0B0B"/>
<path d="M151.82 16.7279L147.796 16.9756C147.727 16.6316 147.579 16.322 147.352 16.0469C147.125 15.7648 146.826 15.5412 146.455 15.3761C146.09 15.2041 145.653 15.1182 145.144 15.1182C144.463 15.1182 143.889 15.2626 143.421 15.5515C142.953 15.8336 142.719 16.212 142.719 16.6866C142.719 17.065 142.87 17.3849 143.173 17.6463C143.476 17.9077 143.995 18.1175 144.731 18.2758L147.6 18.8536C149.141 19.1701 150.29 19.6791 151.047 20.3808C151.803 21.0825 152.182 22.0043 152.182 23.1463C152.182 24.1851 151.876 25.0966 151.263 25.8808C150.658 26.6651 149.825 27.2773 148.766 27.7176C147.714 28.151 146.499 28.3677 145.123 28.3677C143.025 28.3677 141.354 27.9309 140.108 27.0572C138.87 26.1766 138.144 24.9796 137.931 23.4662L142.255 23.2392C142.386 23.8789 142.702 24.3674 143.204 24.7045C143.706 25.0347 144.35 25.1998 145.134 25.1998C145.904 25.1998 146.523 25.0519 146.991 24.7561C147.466 24.4534 147.707 24.0647 147.714 23.59C147.707 23.191 147.538 22.8642 147.208 22.6097C146.878 22.3483 146.369 22.1488 145.681 22.0112L142.936 21.4643C141.388 21.1547 140.236 20.6182 139.479 19.8546C138.729 19.091 138.354 18.1175 138.354 16.9343C138.354 15.9162 138.629 15.039 139.18 14.303C139.737 13.5669 140.518 12.9993 141.522 12.6003C142.533 12.2013 143.717 12.0018 145.072 12.0018C147.074 12.0018 148.649 12.4249 149.798 13.2711C150.954 14.1172 151.628 15.2695 151.82 16.7279Z" fill="#0B0B0B"/>
<path d="M128.49 28.3677C126.859 28.3677 125.456 28.0375 124.279 27.3771C123.11 26.7098 122.209 25.7673 121.576 24.5497C120.943 23.3252 120.626 21.8771 120.626 20.2054C120.626 18.575 120.943 17.1441 121.576 15.9127C122.209 14.6813 123.1 13.7217 124.248 13.0337C125.404 12.3458 126.759 12.0018 128.314 12.0018C129.36 12.0018 130.333 12.1704 131.234 12.5075C132.142 12.8377 132.934 13.3364 133.608 14.0037C134.289 14.671 134.818 15.5103 135.197 16.5215C135.575 17.5259 135.764 18.7023 135.764 20.0506V21.2579H122.381V18.5337H131.626C131.626 17.9008 131.489 17.3402 131.214 16.8517C130.939 16.3633 130.557 15.9815 130.068 15.7063C129.587 15.4243 129.026 15.2833 128.386 15.2833C127.719 15.2833 127.127 15.438 126.611 15.7476C126.102 16.0503 125.703 16.4596 125.414 16.9756C125.126 17.4846 124.978 18.0522 124.971 18.6782V21.2683C124.971 22.0525 125.115 22.7301 125.404 23.3011C125.7 23.8721 126.116 24.3123 126.653 24.6219C127.189 24.9315 127.826 25.0863 128.562 25.0863C129.05 25.0863 129.497 25.0175 129.903 24.8799C130.309 24.7423 130.656 24.5359 130.945 24.2607C131.234 23.9856 131.454 23.6485 131.606 23.2495L135.672 23.5178C135.465 24.4946 135.042 25.3477 134.402 26.0769C133.769 26.7992 132.951 27.3633 131.946 27.7692C130.949 28.1682 129.797 28.3677 128.49 28.3677Z" fill="#0B0B0B"/>
<path d="M107.586 18.8949V28.0581H103.19V12.2082H107.38V15.0046H107.566C107.917 14.0828 108.505 13.3536 109.33 12.817C110.156 12.2736 111.157 12.0018 112.333 12.0018C113.434 12.0018 114.393 12.2426 115.212 12.7242C116.031 13.2057 116.667 13.8936 117.121 14.7879C117.575 15.6754 117.802 16.7348 117.802 17.9662V28.0581H113.406V18.7504C113.413 17.7804 113.165 17.0237 112.663 16.4803C112.161 15.9299 111.47 15.6547 110.589 15.6547C109.998 15.6547 109.475 15.782 109.021 16.0365C108.573 16.2911 108.223 16.6626 107.968 17.151C107.72 17.6325 107.593 18.2138 107.586 18.8949Z" fill="#0B0B0B"/>
<path d="M95.273 28.0582V12.2083H99.6689V28.0582H95.273ZM97.4813 10.1651C96.8277 10.1651 96.2671 9.94842 95.7993 9.51503C95.3384 9.07475 95.1079 8.54849 95.1079 7.93623C95.1079 7.33085 95.3384 6.81146 95.7993 6.37807C96.2671 5.93779 96.8277 5.71765 97.4813 5.71765C98.1348 5.71765 98.692 5.93779 99.1529 6.37807C99.6207 6.81146 99.8546 7.33085 99.8546 7.93623C99.8546 8.54849 99.6207 9.07475 99.1529 9.51503C98.692 9.94842 98.1348 10.1651 97.4813 10.1651Z" fill="#0B0B0B"/>
<path d="M92.1437 16.7279L88.1193 16.9756C88.0505 16.6316 87.9026 16.322 87.6756 16.0469C87.4486 15.7648 87.1493 15.5412 86.7779 15.3761C86.4132 15.2041 85.9764 15.1182 85.4673 15.1182C84.7863 15.1182 84.2119 15.2626 83.7441 15.5515C83.2763 15.8336 83.0424 16.212 83.0424 16.6866C83.0424 17.065 83.1937 17.3849 83.4964 17.6463C83.7991 17.9077 84.3185 18.1175 85.0546 18.2758L87.9233 18.8536C89.4642 19.1701 90.6131 19.6791 91.3698 20.3808C92.1265 21.0825 92.5049 22.0043 92.5049 23.1463C92.5049 24.1851 92.1987 25.0966 91.5865 25.8808C90.9811 26.6651 90.1487 27.2773 89.0893 27.7176C88.0368 28.151 86.8226 28.3677 85.4467 28.3677C83.3485 28.3677 81.6768 27.9309 80.4317 27.0572C79.1934 26.1766 78.4677 24.9796 78.2544 23.4662L82.578 23.2392C82.7087 23.8789 83.0252 24.3674 83.5274 24.7045C84.0296 25.0347 84.6728 25.1998 85.457 25.1998C86.2275 25.1998 86.8466 25.0519 87.3144 24.7561C87.7891 24.4534 88.0299 24.0647 88.0368 23.59C88.0299 23.191 87.8613 22.8642 87.5311 22.6097C87.2009 22.3483 86.6919 22.1488 86.0039 22.0112L83.2591 21.4643C81.7112 21.1547 80.559 20.6182 79.8022 19.8546C79.0524 19.091 78.6775 18.1175 78.6775 16.9343C78.6775 15.9162 78.9526 15.039 79.503 14.303C80.0602 13.5669 80.841 12.9993 81.8454 12.6003C82.8566 12.2013 84.0399 12.0018 85.3951 12.0018C87.397 12.0018 88.9724 12.4249 90.1212 13.2711C91.2769 14.1172 91.9511 15.2695 92.1437 16.7279Z" fill="#0B0B0B"/>
<path d="M71.0441 21.3096V12.2083H75.4399V28.0582H71.2195V25.1792H71.0544C70.6966 26.1079 70.1016 26.8543 69.2692 27.4184C68.4437 27.9825 67.4359 28.2645 66.2457 28.2645C65.1863 28.2645 64.2542 28.0238 63.4493 27.5422C62.6444 27.0607 62.015 26.3762 61.5609 25.4887C61.1138 24.6013 60.8868 23.5385 60.8799 22.3002V12.2083H65.2758V21.5159C65.2826 22.4515 65.5337 23.1911 66.029 23.7345C66.5244 24.278 67.1882 24.5497 68.0206 24.5497C68.5503 24.5497 69.0456 24.4293 69.5065 24.1886C69.9674 23.9409 70.3389 23.5763 70.621 23.0947C70.9099 22.6132 71.0509 22.0181 71.0441 21.3096Z" fill="#0B0B0B"/>
<path d="M42.4888 28.0581V6.92493H46.8846V14.8705H47.0188C47.2114 14.444 47.49 14.0106 47.8546 13.5703C48.2261 13.1232 48.7077 12.7517 49.2993 12.4559C49.8978 12.1532 50.6407 12.0019 51.5282 12.0019C52.6839 12.0019 53.7502 12.3045 54.7271 12.9099C55.7039 13.5084 56.4847 14.413 57.0695 15.6238C57.6542 16.8277 57.9466 18.3377 57.9466 20.1538C57.9466 21.9218 57.6611 23.4146 57.0901 24.6323C56.526 25.843 55.7555 26.7614 54.7786 27.3874C53.8087 28.0066 52.7217 28.3161 51.5179 28.3161C50.6648 28.3161 49.9391 28.1751 49.3406 27.893C48.7489 27.611 48.2639 27.2567 47.8856 26.8302C47.5072 26.3968 47.2183 25.96 47.0188 25.5197H46.8227V28.0581H42.4888ZM46.7918 20.1332C46.7918 21.0757 46.9225 21.8977 47.1839 22.5994C47.4453 23.3011 47.8237 23.848 48.319 24.2401C48.8143 24.6254 49.4162 24.818 50.1248 24.818C50.8402 24.818 51.4456 24.6219 51.9409 24.2298C52.4362 23.8308 52.8112 23.2805 53.0657 22.5788C53.3271 21.8702 53.4578 21.055 53.4578 20.1332C53.4578 19.2182 53.3306 18.4134 53.076 17.7186C52.8215 17.0237 52.4466 16.4803 51.9513 16.0882C51.4559 15.696 50.8471 15.5 50.1248 15.5C49.4093 15.5 48.804 15.6892 48.3087 16.0675C47.8202 16.4459 47.4453 16.9825 47.1839 17.6773C46.9225 18.3721 46.7918 19.1907 46.7918 20.1332Z" fill="#0B0B0B"/>
<path fill-rule="evenodd" clip-rule="evenodd" d="M17.3875 13.1658L22.1427 17.9209L17.615 22.4486L12.8599 17.6934L17.3875 13.1658ZM12.5122 8.29045L9.53089 5.30917C9.36083 5.13911 9.36083 4.8634 9.53089 4.69334L13.7904 0.433817C13.9605 0.26376 14.2362 0.26376 14.4062 0.433817L28.9681 14.9957C30.5837 16.6113 30.5837 19.2306 28.9681 20.8461L22.4904 27.3239L25.4717 30.3052C25.6417 30.4752 25.6417 30.751 25.4717 30.921L21.2121 35.1805C21.0421 35.3506 20.7664 35.3506 20.5963 35.1805L6.03442 20.6186C4.41887 19.0031 4.41887 16.3838 6.03442 14.7682L12.5122 8.29045Z" fill="#0B0B0B"/>
</svg>
