<svg width="180" height="35" viewBox="0 0 180 35" fill="none" xmlns="http://www.w3.org/2000/svg">
<path d="M173.659 11.5114H177.892L172.309 26.8476C170.714 31.2645 168.107 33.1968 164.212 32.9821V29.3014C166.389 29.3321 167.494 28.4119 168.23 26.3569L161.942 11.5114H166.267L170.254 21.8173L173.659 11.5114Z" fill="#0B0B0B"/>
<path d="M154.814 11.0819C158.065 11.0819 160.611 13.3517 160.611 17.4311V26.8476H156.654V17.9219C156.654 15.8361 155.396 14.7626 153.617 14.7626C151.685 14.7626 150.243 15.8975 150.243 18.566V26.8476H146.287V11.5113H150.243V13.229C151.164 11.8487 152.759 11.0819 154.814 11.0819Z" fill="#0B0B0B"/>
<path d="M138.742 11.5113H142.699V26.8476H138.742V25.0379C137.638 26.4182 135.982 27.277 133.742 27.277C129.663 27.277 126.289 23.7497 126.289 19.1795C126.289 14.6092 129.663 11.0819 133.742 11.0819C135.982 11.0819 137.638 11.9407 138.742 13.321V11.5113ZM134.479 23.5043C136.932 23.5043 138.742 21.7559 138.742 19.1795C138.742 16.603 136.932 14.8546 134.479 14.8546C132.055 14.8546 130.246 16.603 130.246 19.1795C130.246 21.7559 132.055 23.5043 134.479 23.5043Z" fill="#0B0B0B"/>
<path d="M116.812 11.0819C120.922 11.0819 124.296 14.6092 124.296 19.1795C124.296 23.7497 120.922 27.277 116.812 27.277C114.573 27.277 112.947 26.4488 111.843 25.0379V32.9821H107.886V11.5113H111.843V13.321C112.947 11.9101 114.573 11.0819 116.812 11.0819ZM116.076 23.5043C118.53 23.5043 120.339 21.7559 120.339 19.1795C120.339 16.603 118.53 14.8546 116.076 14.8546C113.653 14.8546 111.843 16.603 111.843 19.1795C111.843 21.7559 113.653 23.5043 116.076 23.5043Z" fill="#0B0B0B"/>
<path d="M98.7285 11.0819C102.225 11.0819 104.526 13.5664 104.526 17.4004V26.8476H100.569V17.6765C100.569 15.8668 99.6487 14.7626 97.9924 14.7626C96.244 14.7626 95.1398 15.9282 95.1398 18.2286V26.8476H91.1831V17.6765C91.1831 15.8668 90.2629 14.7626 88.6066 14.7626C86.9196 14.7626 85.7234 15.9282 85.7234 18.2286V26.8476H81.7666V11.5113H85.7234V13.137C86.5822 11.8487 88.0238 11.0819 89.9868 11.0819C91.8885 11.0819 93.2995 11.8794 94.1583 13.2903C95.1091 11.9101 96.6428 11.0819 98.7285 11.0819Z" fill="#0B0B0B"/>
<path d="M70.8549 27.277C66.346 27.277 62.7573 23.7497 62.7573 19.1795C62.7573 14.6092 66.346 11.0819 70.8549 11.0819C75.3637 11.0819 78.9831 14.6092 78.9831 19.1795C78.9831 23.7497 75.3637 27.277 70.8549 27.277ZM70.8549 23.4123C73.2167 23.4123 75.0263 21.6639 75.0263 19.1795C75.0263 16.695 73.2167 14.9466 70.8549 14.9466C68.5238 14.9466 66.7141 16.695 66.7141 19.1795C66.7141 21.6639 68.5238 23.4123 70.8549 23.4123Z" fill="#0B0B0B"/>
<path d="M54.7699 27.277C50.1077 27.277 46.6724 23.7497 46.6724 19.1795C46.6724 14.6092 50.1077 11.0819 54.7699 11.0819C57.7758 11.0819 60.383 12.6769 61.6406 15.0387L58.2359 17.0324C57.6225 15.7748 56.3035 14.9773 54.7392 14.9773C52.3775 14.9773 50.6291 16.7257 50.6291 19.1795C50.6291 21.6026 52.3775 23.3509 54.7392 23.3509C56.3342 23.3509 57.6531 22.5841 58.2666 21.3265L61.7019 23.2896C60.383 25.682 57.7758 27.277 54.7699 27.277Z" fill="#0B0B0B"/>
<path fill-rule="evenodd" clip-rule="evenodd" d="M12.9052 2.60449C11.5818 2.60449 10.5089 3.67732 10.5089 5.00072V12.4851H2.88646C1.56306 12.4851 0.490234 13.5579 0.490234 14.8813V32.5487C0.490234 33.8721 1.56306 34.945 2.88646 34.945H20.344C21.6674 34.945 22.7402 33.8721 22.7402 32.5487V25.0644H30.3627C31.6861 25.0644 32.7589 23.9916 32.7589 22.6682V5.00072C32.7589 3.67732 31.6861 2.60449 30.3627 2.60449H12.9052ZM22.7402 25.0644V14.8813C22.7402 13.5579 21.6674 12.4851 20.344 12.4851H10.5089V22.6682C10.5089 23.9916 11.5818 25.0644 12.9052 25.0644H22.7402Z" fill="#0B0B0B"/>
</svg>
