<svg width="74" height="74" viewBox="0 0 74 74" fill="none" xmlns="http://www.w3.org/2000/svg">
<g clip-path="url(#clip0_2476_34649)">
<path fill-rule="evenodd" clip-rule="evenodd" d="M51.3261 4.44579C46.8257 3.55062 42.161 4.01005 37.9217 5.76601C33.6825 7.52196 30.0591 10.4956 27.5099 14.3108C24.9607 18.126 23.6 22.6115 23.6 27.2C23.6 27.2025 23.6 27.205 23.6 27.2075C23.5889 30.1617 24.1569 33.0894 25.272 35.8251C25.5758 36.5704 25.4033 37.4251 24.8342 37.9942L4 58.8284V70H14V63.6C14 62.4954 14.8954 61.6 16 61.6H22.4V55.2C22.4 54.0954 23.2954 53.2 24.4 53.2H31.9716L36.0058 49.1658C36.5749 48.5967 37.4296 48.4242 38.1749 48.728C40.9106 49.8431 43.8383 50.4111 46.7925 50.4L46.8 50.4C51.3885 50.4 55.874 49.0393 59.6892 46.4901C63.5044 43.9408 66.478 40.3175 68.234 36.0783C69.99 31.839 70.4494 27.1743 69.5542 22.6739C68.659 18.1736 66.4494 14.0397 63.2049 10.7951C59.9603 7.55055 55.8264 5.34097 51.3261 4.44579ZM36.391 2.07049C41.3612 0.0117853 46.8302 -0.526865 52.1065 0.522652C57.3827 1.57217 62.2293 4.16272 66.0333 7.9667C69.8373 11.7707 72.4278 16.6173 73.4774 21.8936C74.5269 27.1698 73.9882 32.6388 71.9295 37.609C69.8708 42.5791 66.3845 46.8272 61.9115 49.816C57.4394 52.8041 52.1818 54.3993 46.8033 54.4C43.776 54.4109 40.7723 53.9051 37.921 52.9074L34.2142 56.6142C33.8391 56.9893 33.3304 57.2 32.8 57.2H26.4V63.6C26.4 64.7046 25.5046 65.6 24.4 65.6H18V72C18 73.1046 17.1046 74 16 74H2C0.895431 74 0 73.1046 0 72V58C0 57.4696 0.210714 56.9609 0.585787 56.5858L21.0926 36.079C20.0949 33.2275 19.5891 30.2238 19.6 27.1963C19.6007 21.818 21.1959 16.5605 24.184 12.0885C27.1728 7.61548 31.4209 4.12919 36.391 2.07049Z" fill="#0B0B0B"/>
<path fill-rule="evenodd" clip-rule="evenodd" d="M53.4742 19.2511C52.824 19.2511 52.2969 19.7782 52.2969 20.4284C52.2969 21.0786 52.824 21.6057 53.4742 21.6057C54.1244 21.6057 54.6515 21.0786 54.6515 20.4284C54.6515 19.7782 54.1244 19.2511 53.4742 19.2511ZM48.2969 20.4284C48.2969 17.5691 50.6148 15.2511 53.4742 15.2511C56.3335 15.2511 58.6515 17.5691 58.6515 20.4284C58.6515 23.2878 56.3335 25.6057 53.4742 25.6057C50.6148 25.6057 48.2969 23.2878 48.2969 20.4284Z" fill="#0B0B0B"/>
</g>
<defs>
<clipPath id="clip0_2476_34649">
<rect width="74" height="74" fill="white"/>
</clipPath>
</defs>
</svg>
