<svg width="26" height="27" viewBox="0 0 26 27" fill="none" xmlns="http://www.w3.org/2000/svg">
<path d="M26.0039 13.2945C26.0039 12.4385 25.9264 11.6259 25.7936 10.835H13.2891V15.7215H20.4487C20.1278 17.3251 19.1872 18.6794 17.7929 19.6004V22.8509H22.0644C24.5653 20.5864 26.0039 17.2492 26.0039 13.2945Z" fill="#4285F4"/>
<path d="M13.2813 26.0039C16.8667 26.0039 19.8656 24.8337 22.0567 22.8509L17.7852 19.6004C16.5901 20.3805 15.074 20.8573 13.2813 20.8573C9.8177 20.8573 6.88521 18.5711 5.83395 15.4832H1.42969V18.8311C3.60968 23.0784 8.0914 26.0039 13.2813 26.0039Z" fill="#34A853"/>
<path d="M5.83177 15.4831C5.55512 14.703 5.41126 13.8687 5.41126 13.0019C5.41126 12.1351 5.56618 11.3008 5.83177 10.5207V7.17271H1.42751C0.5201 8.92796 0 10.8999 0 13.0019C0 15.1039 0.5201 17.0758 1.42751 18.8311L5.83177 15.4831Z" fill="#FBBC05"/>
<path d="M13.2813 5.14659C15.24 5.14659 16.9884 5.80752 18.3717 7.09688L22.1563 3.39133C19.8656 1.28936 16.8667 0 13.2813 0C8.0914 0 3.60968 2.92543 1.42969 7.17272L5.83395 10.5207C6.88521 7.43276 9.81769 5.14659 13.2813 5.14659Z" fill="#EA4335"/>
</svg>
