<svg width="182" height="48" viewBox="0 0 182 48" fill="none" xmlns="http://www.w3.org/2000/svg">
<path d="M1.74674 13.7311L11.3021 13.7311L22.1017 24.5779L22.1882 34.2373L12.6133 34.1658L1.67695 23.305L1.74674 13.7311Z" stroke="white" stroke-width="3.24562"/>
<path d="M25.3897 13.7311L34.9451 13.7311L45.7446 24.5779L45.8311 34.2373L36.2563 34.1658L25.3199 23.305L25.3897 13.7311Z" stroke="white" stroke-width="3.24562"/>
<path d="M63.3064 12.7413H70.7635C71.7858 12.7413 72.7079 12.8014 73.5298 12.9217C74.3717 13.042 75.1235 13.3226 75.785 13.7636C76.3663 14.1445 76.8574 14.6858 77.2584 15.3874C77.6593 16.089 77.8597 16.981 77.8597 18.0635C77.8597 19.146 77.6092 20.1082 77.108 20.9501C76.6269 21.792 75.8752 22.4135 74.8528 22.8144C76.216 23.0549 77.2383 23.6363 77.9199 24.5584C78.6014 25.4604 78.9422 26.6331 78.9422 28.0764C78.8821 29.3995 78.6014 30.4318 78.1003 31.1735C77.5991 31.9152 76.9577 32.4966 76.1759 32.9175C75.3941 33.3385 74.5121 33.6292 73.5298 33.7895C72.5676 33.9298 71.5954 34 70.6131 34H63.3064V12.7413ZM65.9224 15.1167V22.0627H70.0118C70.573 22.0627 71.1544 22.0226 71.7558 21.9424C72.3571 21.8622 72.8984 21.6918 73.3795 21.4312C73.9408 21.1506 74.3918 20.7697 74.7326 20.2886C75.0934 19.7874 75.2838 19.1059 75.3039 18.2439C75.3039 17.5623 75.1836 17.0211 74.9431 16.6202C74.7025 16.1992 74.3717 15.8785 73.9508 15.658C73.5298 15.4375 73.0487 15.2972 72.5075 15.237C71.9662 15.1568 71.3949 15.1167 70.7935 15.1167H65.9224ZM70.5229 31.6246C71.1644 31.6246 71.8059 31.5945 72.4473 31.5344C73.1089 31.4742 73.7303 31.3239 74.3116 31.0833C74.913 30.8227 75.3941 30.4519 75.7549 29.9708C76.1157 29.4696 76.2962 28.7981 76.2962 27.9562C76.2962 27.2345 76.1558 26.6431 75.8752 26.1821C75.6146 25.721 75.2538 25.3602 74.7927 25.0996C74.3517 24.839 73.8405 24.6586 73.2592 24.5584C72.6779 24.4581 72.0865 24.408 71.4851 24.408H65.9224V31.6246H70.5229ZM92.8723 31.9854C92.5315 32.4464 92.1407 32.8173 91.6996 33.0979C91.2586 33.3786 90.7976 33.5991 90.3165 33.7594C89.8554 33.9198 89.3843 34.0301 88.9032 34.0902C88.4422 34.1503 87.9811 34.1804 87.5201 34.1804C86.7784 34.1804 86.0768 34.0902 85.4152 33.9098C84.7537 33.7294 84.1524 33.4387 83.6111 33.0378C83.0899 32.6369 82.669 32.1357 82.3482 31.5344C82.0475 30.933 81.8972 30.2514 81.8972 29.4897C81.8972 28.5876 82.0576 27.8359 82.3783 27.2345C82.7191 26.6131 83.1701 26.1119 83.7314 25.7311C84.2927 25.3502 84.9341 25.0896 85.6558 24.9493C86.3975 24.7889 87.1793 24.7087 88.0012 24.7087H92.6618C92.6618 23.3656 92.3712 22.3032 91.7898 21.5214C91.2085 20.7196 90.2263 20.2986 88.8431 20.2585C88.0012 20.2585 87.2595 20.3988 86.618 20.6795C85.9765 20.9601 85.5355 21.4212 85.295 22.0627H82.5587C82.699 21.341 82.9797 20.7296 83.4006 20.2285C83.8216 19.7073 84.3227 19.2863 84.9041 18.9656C85.4854 18.6248 86.1169 18.3742 86.7984 18.2138C87.48 18.0535 88.1615 17.9733 88.8431 17.9733C90.0258 17.9733 91.0181 18.1737 91.8199 18.5747C92.6418 18.9555 93.3033 19.4667 93.8045 20.1082C94.3056 20.7296 94.6564 21.4913 94.8569 22.3934C95.0573 23.2955 95.1576 24.3078 95.1576 25.4304V34H93.0227L92.8723 31.9854ZM89.8654 26.8436C89.3843 26.8436 88.8231 26.8536 88.1816 26.8737C87.5602 26.8737 86.9588 26.9338 86.3774 27.0541C85.7961 27.1744 85.325 27.4249 84.9642 27.8058C84.6234 28.1867 84.453 28.6878 84.453 29.3093C84.453 29.7703 84.5432 30.1612 84.7237 30.4819C84.9041 30.8027 85.1446 31.0733 85.4453 31.2938C85.766 31.5143 86.1269 31.6747 86.5278 31.7749C86.9287 31.8751 87.3397 31.9252 87.7606 31.9252C89.2641 31.9252 90.4468 31.5644 91.3087 30.8428C92.1908 30.1011 92.6418 29.0286 92.6618 27.6254V26.8436H89.8654ZM99.1173 34V18.1537H101.583L101.703 20.5592C101.964 20.1182 102.285 19.7373 102.665 19.4166C103.066 19.0959 103.497 18.8252 103.958 18.6047C104.419 18.3842 104.901 18.2239 105.402 18.1236C105.923 18.0234 106.424 17.9733 106.905 17.9733C108.048 17.9733 109.01 18.1637 109.792 18.5446C110.574 18.9054 111.195 19.4166 111.656 20.0781C112.117 20.7196 112.448 21.4913 112.648 22.3934C112.849 23.2754 112.949 24.2276 112.949 25.25V34H110.393V25.9415C110.393 25.1998 110.343 24.4882 110.243 23.8066C110.163 23.1251 109.982 22.5237 109.702 22.0025C109.441 21.4613 109.06 21.0303 108.559 20.7096C108.058 20.3888 107.386 20.2285 106.544 20.2285C105.722 20.2485 104.991 20.449 104.349 20.8298C103.728 21.2107 103.227 21.6617 102.846 22.1829C102.385 22.8444 102.074 23.5761 101.914 24.378C101.753 25.1597 101.673 25.9516 101.673 26.7534V34H99.1173ZM116.883 34V12.7413H119.438V24.9793H122.205L126.956 18.1537H129.842L124.55 25.701L130.293 34H127.286L122.505 27.2044H119.438V34H116.883ZM132.504 34V12.7413H135.06V34H132.504ZM153.004 18.1537V34C153.004 36.3053 152.402 38.0593 151.2 39.2621C149.997 40.4849 148.283 41.0963 146.058 41.0963C144.715 41.0762 143.502 40.8958 142.419 40.555C141.357 40.2343 140.375 39.6529 139.473 38.811L140.585 36.7964C141.367 37.4178 142.199 37.909 143.081 38.2698C143.983 38.6306 144.925 38.811 145.907 38.811C146.729 38.811 147.431 38.6807 148.012 38.4201C148.594 38.1796 149.065 37.8288 149.426 37.3677C149.806 36.9267 150.077 36.3955 150.237 35.7741C150.418 35.1526 150.508 34.4811 150.508 33.7594V31.8651C150.247 32.266 149.917 32.6269 149.516 32.9476C149.135 33.2483 148.714 33.4989 148.253 33.6993C147.812 33.8797 147.331 34.01 146.81 34.0902C146.308 34.1904 145.797 34.2406 145.276 34.2406C144.073 34.2205 143.071 34.0301 142.269 33.6692C141.487 33.3084 140.856 32.8073 140.375 32.1658C139.914 31.5243 139.583 30.7626 139.383 29.8806C139.182 28.9785 139.082 27.9862 139.082 26.9037V18.1537H141.638V26.1821C141.638 26.9037 141.678 27.6154 141.758 28.317C141.858 29.0186 142.049 29.64 142.329 30.1813C142.61 30.7225 143.021 31.1635 143.562 31.5043C144.103 31.825 144.825 31.9854 145.727 31.9854C146.629 31.9854 147.391 31.7949 148.012 31.4141C148.654 31.0332 149.145 30.5521 149.486 29.9708C149.867 29.3694 150.117 28.7079 150.237 27.9862C150.378 27.2646 150.448 26.5229 150.448 25.7611V18.1537H153.004ZM177.125 12.7413H180.283L173.667 23.2955L180.523 34H177.366L172.014 25.4905L166.601 34H163.534L170.36 23.3857L163.745 12.7413H166.932L172.044 21.2207L177.125 12.7413Z" fill="white"/>
</svg>
