<svg width="145" height="33" viewBox="0 0 145 33" fill="none" xmlns="http://www.w3.org/2000/svg">
<path d="M135.572 10.2377C139.466 10.2377 142.662 13.5794 142.662 17.909C142.662 22.2387 139.466 25.5804 135.572 25.5804C133.451 25.5804 131.911 24.7958 130.865 23.4591V30.9852H127.116V10.6445H130.865V12.3589C131.911 11.0222 133.451 10.2377 135.572 10.2377ZM134.875 22.0062C137.199 22.0062 138.914 20.3499 138.914 17.909C138.914 15.4681 137.199 13.8118 134.875 13.8118C132.579 13.8118 130.865 15.4681 130.865 17.909C130.865 20.3499 132.579 22.0062 134.875 22.0062Z" fill="#0B0B0B"/>
<path d="M119.934 10.6445H123.683V25.1736H119.934V23.5464C119.063 24.854 117.552 25.5804 115.605 25.5804C112.525 25.5804 110.113 23.4301 110.113 19.5654V10.6445H113.861V19.1005C113.861 21.0764 115.053 22.0935 116.738 22.0935C118.569 22.0935 119.934 21.0183 119.934 18.4902V10.6445Z" fill="#0B0B0B"/>
<path d="M107.475 14.2477H104.192V20.2918C104.192 21.8609 105.325 21.89 107.475 21.7737V25.1735C102.216 25.7547 100.443 24.2146 100.443 20.2918V14.2477H97.915V10.6444H100.443V7.70956L104.192 6.57629V10.6444H107.475V14.2477Z" fill="#0B0B0B"/>
<path d="M92.1582 13.1435C92.9137 11.1675 94.7444 10.3539 96.575 10.3539V14.5383C94.6281 14.3058 92.1582 15.1775 92.1582 18.2286V25.1736H88.4097V10.6445H92.1582V13.1435Z" fill="#0B0B0B"/>
<path d="M81.262 10.6445H85.0105V25.1736H81.262V23.4591C80.2159 24.7668 78.6467 25.5804 76.5255 25.5804C72.6608 25.5804 69.4644 22.2387 69.4644 17.909C69.4644 13.5794 72.6608 10.2377 76.5255 10.2377C78.6467 10.2377 80.2159 11.0513 81.262 12.3589V10.6445ZM77.2229 22.0062C79.5475 22.0062 81.262 20.3499 81.262 17.909C81.262 15.4681 79.5475 13.8118 77.2229 13.8118C74.9273 13.8118 73.2129 15.4681 73.2129 17.909C73.2129 20.3499 74.9273 22.0062 77.2229 22.0062Z" fill="#0B0B0B"/>
<path d="M68.0308 14.2477H64.7473V20.2918C64.7473 21.8609 65.8805 21.89 68.0308 21.7737V25.1735C62.7713 25.7547 60.9988 24.2146 60.9988 20.2918V14.2477H58.4707V10.6444H60.9988V7.70956L64.7473 6.57629V10.6444H68.0308V14.2477Z" fill="#0B0B0B"/>
<path d="M50.2384 14.7707C50.2384 16.9211 57.7354 15.5844 57.7354 20.9311C57.7354 24.0694 55.0039 25.5804 51.8947 25.5804C48.9889 25.5804 46.8386 24.3599 45.7925 22.1225L49.047 20.2918C49.4538 21.4832 50.4418 22.1806 51.8947 22.1806C53.0861 22.1806 53.8997 21.7738 53.8997 20.9311C53.8997 18.8098 46.4027 19.9722 46.4027 14.8579C46.4027 11.894 48.9308 10.2377 51.9238 10.2377C54.2775 10.2377 56.3115 11.3128 57.4448 13.3178L54.2484 15.0613C53.8125 14.1315 52.9989 13.5794 51.9238 13.5794C50.9939 13.5794 50.2384 13.9862 50.2384 14.7707Z" fill="#0B0B0B"/>
<path d="M11.1395 19.2388L4.57471 25.8709C3.66256 26.7924 2.17172 26.7858 1.26772 25.8564C0.383275 24.947 0.394724 23.4954 1.2934 22.6001L10.095 13.8317C11.048 12.8822 12.589 12.8806 13.544 13.8282L17.708 17.96L24.6942 10.8825H19.9454C18.7098 10.8825 17.708 9.88079 17.708 8.64511C17.708 7.40943 18.7098 6.40771 19.9454 6.40771H30.0564C31.4072 6.40771 32.5023 7.50277 32.5023 8.85359V18.8732C32.5023 20.1593 31.4597 21.2019 30.1735 21.2019C28.8874 21.2019 27.8448 20.1593 27.8448 18.8732V14.1245L19.7428 22.19C18.6119 23.3158 16.7886 23.3318 15.6381 22.2259L12.5128 19.2217C12.1273 18.8511 11.5157 18.8587 11.1395 19.2388Z" fill="#0B0B0B"/>
</svg>
