<svg width="149" height="36" viewBox="0 0 149 36" fill="none" xmlns="http://www.w3.org/2000/svg">
<path d="M139.968 27.1573C138.432 27.1573 137.085 26.8312 135.928 26.179C134.771 25.5057 133.877 24.5694 133.246 23.3701C132.614 22.1708 132.299 20.7611 132.299 19.141C132.299 17.542 132.614 16.1428 133.246 14.9435C133.877 13.7232 134.771 12.7764 135.928 12.1031C137.085 11.4088 138.432 11.0616 139.968 11.0616C141.525 11.0616 142.871 11.4088 144.008 12.1031C145.165 12.7975 146.059 13.7548 146.69 14.9751C147.321 16.1744 147.637 17.5525 147.637 19.1095C147.637 19.3409 147.627 19.5724 147.605 19.8038C147.605 20.0142 147.584 20.193 147.542 20.3403H135.676V17.2474H144.418L143.787 18.7308C143.787 17.4263 143.471 16.3637 142.84 15.5432C142.23 14.7226 141.272 14.3123 139.968 14.3123C138.832 14.3123 137.917 14.67 137.222 15.3854C136.528 16.0797 136.181 17.016 136.181 18.1942V19.8669C136.181 21.1083 136.528 22.0867 137.222 22.802C137.938 23.4963 138.905 23.8435 140.126 23.8435C141.199 23.8435 142.04 23.6226 142.651 23.1807C143.261 22.7389 143.787 22.1919 144.229 21.5396L147.101 23.1807C146.406 24.4642 145.459 25.4531 144.26 26.1474C143.082 26.8207 141.651 27.1573 139.968 27.1573Z" fill="#BABABA"/>
<path d="M125.735 11.4088L126.777 15.6694V26.8417H122.643V11.4088H125.735ZM125.925 17.784L125.167 17.4368V14.2808L125.451 13.9336C125.683 13.5549 126.03 13.1446 126.493 12.7028C126.977 12.2609 127.524 11.8822 128.134 11.5666C128.765 11.23 129.417 11.0616 130.091 11.0616C130.427 11.0616 130.732 11.0827 131.006 11.1248C131.28 11.1668 131.49 11.2405 131.637 11.3457V15.1013H130.627C129.26 15.1013 128.208 15.3223 127.471 15.7641C126.735 16.1849 126.219 16.8582 125.925 17.784Z" fill="#BABABA"/>
<path d="M110.311 27.2203C109.154 27.2203 108.228 27.0415 107.534 26.6838C106.839 26.3261 106.303 25.8527 105.924 25.2636C105.566 24.6534 105.324 23.9591 105.198 23.1806C105.072 22.4021 105.009 21.5921 105.009 20.7505V11.4087H109.143V20.7821C109.143 21.7289 109.343 22.3601 109.743 22.6757C110.164 22.9913 110.658 23.1491 111.226 23.1491C111.752 23.1491 112.278 23.0544 112.804 22.865C113.33 22.6757 113.825 22.4021 114.287 22.0445C114.771 21.6657 115.171 21.2344 115.487 20.7505L115.992 22.9281H114.982V11.4087H119.116V26.8416H116.023L115.171 23.9065L116.497 23.9381C115.971 24.5482 115.371 25.1058 114.698 25.6108C114.046 26.1157 113.341 26.5155 112.583 26.81C111.847 27.0836 111.089 27.2203 110.311 27.2203Z" fill="#BABABA"/>
<path d="M99.5562 27.1257C97.9782 27.1257 96.7263 26.7154 95.8006 25.8948C94.8959 25.0532 94.4435 23.7172 94.4435 21.8867V11.5981L94.3804 11.4087L95.2325 7.7793H98.5779V21.2239C98.5779 21.8972 98.7357 22.3916 99.0513 22.7072C99.3879 23.0018 99.8087 23.1491 100.314 23.1491C100.65 23.1491 100.955 23.128 101.229 23.086C101.502 23.0228 101.744 22.9597 101.955 22.8966V26.7469C101.618 26.8732 101.26 26.9679 100.882 27.031C100.503 27.0941 100.061 27.1257 99.5562 27.1257ZM92.0449 15.2275V11.4087H101.955V15.2275H92.0449Z" fill="#BABABA"/>
<path d="M84.9818 11.0616C86.0338 11.0616 86.8754 11.2405 87.5066 11.5982C88.1589 11.9558 88.6428 12.4398 88.9584 13.0499C89.295 13.6601 89.5159 14.3544 89.6211 15.1329C89.7263 15.8903 89.7789 16.6794 89.7789 17.4999V26.8417H85.6446V17.4684C85.6446 16.5215 85.4552 15.8903 85.0765 15.5747C84.7188 15.2591 84.2559 15.1013 83.6878 15.1013C83.1618 15.1013 82.6253 15.2065 82.0783 15.4169C81.5312 15.6063 81.0157 15.8903 80.5318 16.2691C80.0689 16.6267 79.6692 17.037 79.3325 17.4999L78.796 15.3538H79.8375V26.8417H75.7031V11.4088H78.796L79.6481 14.3755L78.3226 14.3123C78.8697 13.6811 79.4903 13.1236 80.1847 12.6397C80.9 12.1557 81.6575 11.777 82.457 11.5035C83.2565 11.2089 84.0981 11.0616 84.9818 11.0616Z" fill="#BABABA"/>
<path d="M65.5058 27.1573C63.9699 27.1573 62.6233 26.8312 61.4661 26.179C60.3089 25.5057 59.4147 24.5694 58.7835 23.3701C58.1523 22.1708 57.8367 20.7611 57.8367 19.141C57.8367 17.542 58.1523 16.1428 58.7835 14.9435C59.4147 13.7232 60.3089 12.7764 61.4661 12.1031C62.6233 11.4088 63.9699 11.0616 65.5058 11.0616C67.0627 11.0616 68.4093 11.4088 69.5455 12.1031C70.7027 12.7975 71.5969 13.7548 72.2281 14.9751C72.8593 16.1744 73.1749 17.5525 73.1749 19.1095C73.1749 19.3409 73.1644 19.5724 73.1433 19.8038C73.1433 20.0142 73.1223 20.193 73.0802 20.3403H61.2136V17.2474H69.9558L69.3246 18.7308C69.3246 17.4263 69.009 16.3637 68.3778 15.5432C67.7676 14.7226 66.8103 14.3123 65.5058 14.3123C64.3696 14.3123 63.4544 14.67 62.7601 15.3854C62.0657 16.0797 61.7186 17.016 61.7186 18.1942V19.8669C61.7186 21.1083 62.0657 22.0867 62.7601 22.802C63.4754 23.4963 64.4433 23.8435 65.6636 23.8435C66.7366 23.8435 67.5782 23.6226 68.1884 23.1807C68.7986 22.7389 69.3246 22.1919 69.7664 21.5396L72.6384 23.1807C71.9441 24.4642 70.9972 25.4531 69.798 26.1474C68.6197 26.8207 67.189 27.1573 65.5058 27.1573Z" fill="#BABABA"/>
<path d="M57.2039 11.4087L51.5547 26.8416H47.5781L41.6448 11.4087H46.0001L50.0398 23.2122H49.0614L52.9433 11.4087H57.2039Z" fill="#BABABA"/>
<path fill-rule="evenodd" clip-rule="evenodd" d="M11.945 2.66187C11.4072 2.66187 10.9712 3.09787 10.9712 3.63571V12.8873C5.32389 12.8873 0.74585 17.4654 0.74585 23.1127C0.74585 28.76 5.32392 33.3381 10.9713 33.3381H20.2228C20.7607 33.3381 21.1967 32.9021 21.1967 32.3643V23.1127C26.844 23.1126 31.422 18.5346 31.422 12.8873C31.422 7.23993 26.8439 2.66187 21.1966 2.66187H11.945ZM21.1967 23.1127V13.8611C21.1967 13.3233 20.7607 12.8873 20.2228 12.8873H10.9713C10.9712 12.8873 10.9712 12.8873 10.9712 12.8873V22.1388C10.9712 22.6767 11.4072 23.1127 11.945 23.1127H21.1966C21.1966 23.1127 21.1966 23.1127 21.1967 23.1127Z" fill="#BABABA"/>
<path d="M11.8356 2.66187C11.3583 2.66187 10.9714 3.04874 10.9714 3.52598L10.9714 12.8873H20.3327C20.81 12.8873 21.1968 13.2741 21.1968 13.7514L21.1968 23.1127C26.8442 23.1127 31.4222 18.5346 31.4222 12.8873C31.4222 7.23993 26.8442 2.66187 21.1968 2.66187H11.8356Z" fill="#BABABA"/>
</svg>
