<svg width="156" height="38" viewBox="0 0 156 38" fill="none" xmlns="http://www.w3.org/2000/svg">
<path d="M146.841 28.5832C145.225 28.5832 143.807 28.24 142.59 27.5535C141.372 26.8449 140.43 25.8594 139.766 24.5972C139.102 23.3349 138.77 21.8512 138.77 20.1461C138.77 18.4631 139.102 16.9904 139.766 15.7282C140.43 14.4438 141.372 13.4473 142.59 12.7386C143.807 12.0078 145.225 11.6425 146.841 11.6425C148.48 11.6425 149.897 12.0078 151.093 12.7386C152.311 13.4694 153.252 14.477 153.917 15.7614C154.581 17.0236 154.913 18.4741 154.913 20.1128C154.913 20.3564 154.902 20.6 154.88 20.8436C154.88 21.0651 154.858 21.2533 154.813 21.4083H142.324V18.153H151.525L150.861 19.7142C150.861 18.3413 150.528 17.2229 149.864 16.3593C149.222 15.4957 148.214 15.0638 146.841 15.0638C145.645 15.0638 144.682 15.4403 143.951 16.1932C143.221 16.924 142.855 17.9094 142.855 19.1495V20.9101C142.855 22.2166 143.221 23.2463 143.951 23.9993C144.704 24.73 145.723 25.0954 147.007 25.0954C148.137 25.0954 149.023 24.8629 149.665 24.3979C150.307 23.9328 150.861 23.3571 151.326 22.6706L154.348 24.3979C153.618 25.7487 152.621 26.7895 151.359 27.5203C150.119 28.2289 148.613 28.5832 146.841 28.5832Z" fill="#0B0B0B"/>
<path d="M131.862 12.0078L132.958 16.4922V28.2511H128.606V12.0078H131.862ZM132.061 18.7177L131.264 18.3523V15.0306L131.563 14.6652C131.806 14.2666 132.172 13.8348 132.659 13.3698C133.168 12.9047 133.744 12.5061 134.386 12.1739C135.051 11.8196 135.737 11.6425 136.446 11.6425C136.8 11.6425 137.121 11.6646 137.409 11.7089C137.697 11.7532 137.918 11.8307 138.073 11.9414V15.8943H137.01C135.571 15.8943 134.464 16.1268 133.689 16.5918C132.914 17.0347 132.371 17.7433 132.061 18.7177Z" fill="#0B0B0B"/>
<path d="M115.627 28.6496C114.409 28.6496 113.435 28.4614 112.704 28.0849C111.973 27.7085 111.409 27.2102 111.01 26.5902C110.634 25.948 110.379 25.2172 110.246 24.3978C110.113 23.5785 110.047 22.7259 110.047 21.8401V12.0078H114.398V21.8733C114.398 22.8698 114.609 23.5342 115.029 23.8664C115.472 24.1985 115.993 24.3646 116.591 24.3646C117.144 24.3646 117.698 24.265 118.252 24.0657C118.805 23.8664 119.326 23.5785 119.813 23.202C120.322 22.8034 120.743 22.3494 121.075 21.8401L121.606 24.1321H120.544V12.0078H124.895V28.251H121.64L120.743 25.1618L122.138 25.195C121.584 25.8372 120.953 26.4241 120.245 26.9556C119.558 27.487 118.816 27.9078 118.019 28.2178C117.244 28.5057 116.447 28.6496 115.627 28.6496Z" fill="#0B0B0B"/>
<path d="M104.308 28.5499C102.647 28.5499 101.33 28.1181 100.355 27.2544C99.403 26.3686 98.9268 24.9624 98.9268 23.0358V12.207L98.8604 12.0077L99.7573 8.18774H103.278V22.3383C103.278 23.0469 103.444 23.5673 103.777 23.8995C104.131 24.2095 104.574 24.3645 105.105 24.3645C105.46 24.3645 105.781 24.3424 106.069 24.2981C106.356 24.2317 106.611 24.1652 106.833 24.0988V28.1513C106.478 28.2841 106.102 28.3838 105.703 28.4502C105.305 28.5167 104.84 28.5499 104.308 28.5499ZM96.4023 16.027V12.0077H106.833V16.027H96.4023Z" fill="#0B0B0B"/>
<path d="M88.968 11.6425C90.0752 11.6425 90.961 11.8307 91.6254 12.2071C92.3119 12.5836 92.8212 13.0929 93.1534 13.7351C93.5077 14.3773 93.7402 15.1081 93.8509 15.9275C93.9617 16.7247 94.017 17.5551 94.017 18.4188V28.2511H89.6656V18.3855C89.6656 17.389 89.4663 16.7247 89.0677 16.3925C88.6912 16.0603 88.204 15.8943 87.6061 15.8943C87.0525 15.8943 86.4878 16.005 85.912 16.2264C85.3363 16.4257 84.7937 16.7247 84.2844 17.1233C83.7972 17.4998 83.3764 17.9316 83.0221 18.4188L82.4574 16.16H83.5536V28.2511H79.2021V12.0078H82.4574L83.3543 15.1303L81.9592 15.0638C82.5349 14.3995 83.1882 13.8126 83.919 13.3033C84.6719 12.794 85.4691 12.3954 86.3106 12.1075C87.1521 11.7975 88.0379 11.6425 88.968 11.6425Z" fill="#0B0B0B"/>
<path d="M68.4697 28.5832C66.8532 28.5832 65.4359 28.24 64.2179 27.5535C63 26.8449 62.0588 25.8594 61.3945 24.5972C60.7301 23.3349 60.3979 21.8512 60.3979 20.1461C60.3979 18.4631 60.7301 16.9904 61.3945 15.7282C62.0588 14.4438 63 13.4473 64.2179 12.7386C65.4359 12.0078 66.8532 11.6425 68.4697 11.6425C70.1084 11.6425 71.5257 12.0078 72.7215 12.7386C73.9395 13.4694 74.8806 14.477 75.545 15.7614C76.2093 17.0236 76.5415 18.4741 76.5415 20.1128C76.5415 20.3564 76.5304 20.6 76.5083 20.8436C76.5083 21.0651 76.4861 21.2533 76.4419 21.4083H63.9522V18.153H73.1534L72.489 19.7142C72.489 18.3413 72.1568 17.2229 71.4925 16.3593C70.8503 15.4957 69.8427 15.0638 68.4697 15.0638C67.2739 15.0638 66.3106 15.4403 65.5798 16.1932C64.8491 16.924 64.4837 17.9094 64.4837 19.1495V20.9101C64.4837 22.2166 64.8491 23.2463 65.5798 23.9993C66.3328 24.73 67.3514 25.0954 68.6358 25.0954C69.7652 25.0954 70.651 24.8629 71.2932 24.3979C71.9354 23.9328 72.489 23.3571 72.954 22.6706L75.9768 24.3979C75.246 25.7487 74.2495 26.7895 72.9873 27.5203C71.7472 28.2289 70.2413 28.5832 68.4697 28.5832Z" fill="#0B0B0B"/>
<path d="M59.7315 12.0078L53.7857 28.251H49.6003L43.3555 12.0078H47.9394L52.1912 24.431H51.1615L55.2472 12.0078H59.7315Z" fill="#0B0B0B"/>
<path fill-rule="evenodd" clip-rule="evenodd" d="M12.097 2.85645C11.5309 2.85645 11.072 3.31534 11.072 3.88142V13.6188H11.0719C5.12801 13.6188 0.30957 18.4372 0.30957 24.3811C0.30957 30.3249 5.12801 35.1433 11.0719 35.1433H20.8092C21.3752 35.1433 21.8341 34.6844 21.8341 34.1184V24.381H21.8343C27.7781 24.381 32.5966 19.5626 32.5966 13.6187C32.5966 7.67489 27.7781 2.85645 21.8343 2.85645H12.097ZM21.8341 24.381V14.6437C21.8341 14.0777 21.3752 13.6188 20.8092 13.6188H11.072V23.356C11.072 23.9221 11.5309 24.381 12.097 24.381H21.8341Z" fill="#0B0B0B"/>
<path d="M11.9813 2.85645C11.479 2.85645 11.0718 3.26364 11.0718 3.76593L11.0718 13.6187H20.9246C21.4269 13.6187 21.8341 14.0259 21.8341 14.5282L21.8341 24.381C27.7779 24.381 32.5964 19.5626 32.5964 13.6187C32.5964 7.67488 27.7779 2.85645 21.8341 2.85645H11.9813Z" fill="#0B0B0B"/>
</svg>
